<svg id="Layer_1" data-name="Layer 1" xmlns="http://www.w3.org/2000/svg" viewBox="0 0 14.67 16"><defs><style>.cls-1{fill:#ef7a8e;}</style></defs><path class="cls-1" d="M10.57,7.24,8.47,9.33l2.1,2.1a.33.33,0,0,1,0,.47.33.33,0,0,1-.24.1.3.3,0,0,1-.23-.1L8,9.8,5.9,11.9a.3.3,0,0,1-.23.1.33.33,0,0,1-.24-.1.33.33,0,0,1,0-.47l2.1-2.1L5.43,7.24a.34.34,0,0,1,0-.48.33.33,0,0,1,.47,0L8,8.86l2.1-2.1a.33.33,0,0,1,.47,0,.34.34,0,0,1,0,.48ZM15.33,3a.33.33,0,0,1-.33.33H14v0l-.92,9.92a3,3,0,0,1-3,2.72H5.92a3,3,0,0,1-3-2.72L2,3.36v0H1a.33.33,0,0,1,0-.66H4.35A3,3,0,0,1,7.33,0H8.67a3,3,0,0,1,3,2.67H15a.33.33,0,0,1,.33.33ZM5,2.67h6a2.35,2.35,0,0,0-2.31-2H7.33A2.35,2.35,0,0,0,5,2.67Zm8.31.66H2.67l.92,9.89a2.32,2.32,0,0,0,2.32,2.11H10.1a2.32,2.32,0,0,0,2.32-2.12l.91-9.88Z" transform="translate(-0.67)"/></svg>