<svg id="Layer_1" data-name="Layer 1" xmlns="http://www.w3.org/2000/svg" viewBox="0 0 16 16"><defs><style>.cls-1{fill:#a9c7ea;}</style></defs><path class="cls-1" d="M9.88,2.68l3.48,3.39-.17.18L8.4,11a.81.81,0,0,1-.61.25H5.27c-.39,0-.56-.17-.56-.57,0-.87,0-1.74,0-2.61a.68.68,0,0,1,.17-.43c1.65-1.67,3.31-3.32,5-5Z" transform="translate(0 0)"/><path class="cls-1" d="M0,8V4.08A4,4,0,0,1,3.41,0,3.33,3.33,0,0,1,4,0H7.31C7.74,0,8,.2,8,.56s-.25.56-.67.57c-1.2,0-2.41,0-3.61,0A2.77,2.77,0,0,0,1.21,3.37,3.59,3.59,0,0,0,1.14,4c0,2.65,0,5.31,0,8a2.84,2.84,0,0,0,2.13,2.78,3.06,3.06,0,0,0,.73.1h8a2.84,2.84,0,0,0,2.84-2.81c0-1.08,0-2.16,0-3.24a2.62,2.62,0,0,1,0-.28A.55.55,0,0,1,15.48,8a.57.57,0,0,1,.52.57v3.5a3.94,3.94,0,0,1-3.49,3.85,7.37,7.37,0,0,1-.82.05C9.13,16,6.57,16,4,16a3.9,3.9,0,0,1-3.3-1.71A3.89,3.89,0,0,1,0,12Z" transform="translate(0 0)"/><path class="cls-1" d="M14.42,5.06,10.94,1.6A13.16,13.16,0,0,1,12.16.46,2.42,2.42,0,0,1,16,2.06a2.38,2.38,0,0,1-.65,2.09Z" transform="translate(0 0)"/></svg>