<svg id="Layer_1" data-name="Layer 1" xmlns="http://www.w3.org/2000/svg" viewBox="0 0 16 16"><defs><style>.cls-1{fill:#fff;}.cls-2{fill:#282a2d;}</style></defs><path class="cls-1" d="M12,5.34c0,.46,0,.89,0,1.32a.62.62,0,0,1-.54.65.61.61,0,0,1-.7-.34,1.28,1.28,0,0,1-.09-.44c0-.39,0-.78,0-1.18H5.34V6.58a.71.71,0,0,1-.44.71A.67.67,0,0,1,4,6.65C4,6.43,4,6.21,4,6V5.36l-.2,0H2.07a.64.64,0,0,0-.73.72c0,2.2,0,4.4,0,6.6a2,2,0,0,0,2,2H9.13a2,2,0,0,1,.35,0,.66.66,0,0,1,.52.67.68.68,0,0,1-.58.63h-6A3.31,3.31,0,0,1,.09,13.39,2.89,2.89,0,0,1,0,12.67Q0,9.36,0,6A2,2,0,0,1,2,4H4A4,4,0,0,1,5.5.88,3.89,3.89,0,0,1,8.12,0,4,4,0,0,1,12,4c.58,0,1.16,0,1.74,0a3.1,3.1,0,0,1,1.09.2A1.84,1.84,0,0,1,16,6c0,1.09,0,2.18,0,3.27a.67.67,0,1,1-1.33,0c0-1,0-2,0-2.95,0-.13,0-.25,0-.38a.6.6,0,0,0-.59-.59C13.38,5.33,12.71,5.34,12,5.34ZM5.34,4h5.32A2.56,2.56,0,0,0,9.39,1.73a2.54,2.54,0,0,0-2.81,0A2.55,2.55,0,0,0,5.34,4Z" transform="translate(0)"/><path class="cls-1" d="M14,14c0,.45,0,.89,0,1.32a.66.66,0,0,1-1,.59.71.71,0,0,1-.35-.67V14H11.34a.67.67,0,0,1-.63-.91.69.69,0,0,1,.69-.43h1.26V11.43a.7.7,0,0,1,.43-.72.66.66,0,0,1,.9.61c0,.36,0,.72,0,1.07a2.62,2.62,0,0,0,0,.27h1.26a.67.67,0,1,1,0,1.34Z" transform="translate(0)"/><path class="cls-2" d="M11.38,16H1.88A1.51,1.51,0,0,1,.36,14.51V6H12.9v8.56A1.51,1.51,0,0,1,11.38,16Zm-10-9.06v7.57a.5.5,0,0,0,.5.5h9.5a.51.51,0,0,0,.51-.5V6.94Z" transform="translate(0)"/><path class="cls-2" d="M11.17,8h-1c0-2.41-1.58-4.37-3.53-4.37S3.1,5.62,3.1,8h-1c0-3,2-5.37,4.54-5.37S11.17,5.07,11.17,8Z" transform="translate(0)"/><ellipse class="cls-2" cx="12.9" cy="2.71" rx="2.74" ry="2.71"/><path class="cls-1" d="M12.13,1.71a.86.86,0,0,1,.77-.36.86.86,0,0,1,.77.36,1.91,1.91,0,0,1,.23,1,1.87,1.87,0,0,1-.23,1,.86.86,0,0,1-.77.36.86.86,0,0,1-.77-.36,1.87,1.87,0,0,1-.23-1A1.91,1.91,0,0,1,12.13,1.71Zm1.09.43a.3.3,0,0,0-.32-.2.32.32,0,0,0-.33.2,1.66,1.66,0,0,0-.07.56c0,.17,0,.31,0,.41a.56.56,0,0,0,.12.27.39.39,0,0,0,.52,0,.47.47,0,0,0,.11-.27,2.22,2.22,0,0,0,0-.41A1.41,1.41,0,0,0,13.22,2.14Z" transform="translate(0)"/></svg>