<svg id="Layer_1" data-name="Layer 1" xmlns="http://www.w3.org/2000/svg" viewBox="0 0 8.37 16"><defs><style>.cls-1{fill:#05ab9e;}</style></defs><path class="cls-1" d="M5,11.18h.69c.23,0,.25,0,.34.24a1.11,1.11,0,0,0,.57.68,1.4,1.4,0,0,0,.56.14c.52,0,1,0,1.56,0a1.61,1.61,0,0,0,1.51-1.52A1.59,1.59,0,0,0,8.86,9,11.57,11.57,0,0,0,7.54,9,3.62,3.62,0,0,1,4.17,6.82a3.31,3.31,0,0,1,.41-3.6A3.42,3.42,0,0,1,6.83,1.86.21.21,0,0,0,7,1.62C7,1.18,7,.73,7,.29c0-.23,0-.29.28-.29H8.68C8.9,0,9,.06,9,.28V1.55c0,.27,0,.28.28.31A3.1,3.1,0,0,1,12,4.55c0,.2,0,.28-.23.28H10.24A.24.24,0,0,1,10,4.65a1.19,1.19,0,0,0-1.3-.88H7.47A1.69,1.69,0,0,0,5.76,5.35,1.66,1.66,0,0,0,7.23,7c.5,0,1,0,1.5,0a3.54,3.54,0,0,1,1,6.9,3.41,3.41,0,0,1-.55.14.22.22,0,0,0-.2.25v1.33c0,.27,0,.31-.3.31H7.32c-.21,0-.25,0-.25-.25V14.38c0-.18,0-.21-.21-.22a3.13,3.13,0,0,1-2.81-2.74c0-.16,0-.24.22-.24Z" transform="translate(-3.82 0)"/></svg>