<svg id="Layer_1" data-name="Layer 1" xmlns="http://www.w3.org/2000/svg" viewBox="0 0 14.78 16"><defs><style>.cls-1{fill:#2dabe3;}</style></defs><path class="cls-1" d="M13.6,16H2.4A1.79,1.79,0,0,1,.61,14.21V3.94H15.39V14.21A1.79,1.79,0,0,1,13.6,16ZM1.8,5.13v9.08a.6.6,0,0,0,.6.6H13.6a.6.6,0,0,0,.6-.6V5.13Z" transform="translate(-0.61)"/><path class="cls-1" d="M13.35,6.44H12.16c0-2.89-1.87-5.25-4.16-5.25S3.84,3.55,3.84,6.44H2.65C2.65,2.89,5.05,0,8,0S13.35,2.89,13.35,6.44Z" transform="translate(-0.61)"/></svg>