<svg id="Layer_1" data-name="Layer 1" xmlns="http://www.w3.org/2000/svg" viewBox="0 0 15.99 16"><defs><style>.cls-1{fill:#f39323;}</style></defs><path class="cls-1" d="M0,8C0,6.73,0,5.48,0,4.22a.39.39,0,0,1,.22-.37L6.74.07a.43.43,0,0,1,.46,0l6.51,3.77a.42.42,0,0,1,.24.41c0,1.41,0,2.81,0,4.22a.21.21,0,0,0,.12.21A3.81,3.81,0,0,1,16,11.6a3.9,3.9,0,0,1-3.05,4.3,3.78,3.78,0,0,1-3.57-1,.21.21,0,0,0-.3,0L7.21,15.91a.42.42,0,0,1-.48,0L.25,12.16A.43.43,0,0,1,0,11.74C0,10.49,0,9.24,0,8ZM8.68,1.55l-.07-.06c-.52-.3-1-.61-1.57-.9a.2.2,0,0,0-.17,0L.65,4.19a.22.22,0,0,0-.13.23v7.13a.25.25,0,0,0,.14.25l6.2,3.58a.18.18,0,0,0,.22,0l1.69-1,.09-.06a4,4,0,0,1,4.56-6s0-.07,0-.1V4.39a.2.2,0,0,0-.12-.19l-1.77-1a.19.19,0,0,0-.23,0L5.1,6.77A.2.2,0,0,0,5,7V8.43c0,.34-.18.45-.47.28-.69-.4-1.38-.8-2.08-1.19a.36.36,0,0,1-.19-.33c0-.53,0-1.05,0-1.57a.52.52,0,0,1,.31-.54C4.46,4,6.37,2.88,8.28,1.78Zm3.38,13.93a3.41,3.41,0,1,0,0-6.82,3.41,3.41,0,0,0,0,6.82ZM10.9,2.82l-.07,0L9.29,1.88a.28.28,0,0,0-.18,0L2.86,5.51a.25.25,0,0,0-.1.17V7a.19.19,0,0,0,.1.18c.49.27,1,.55,1.45.83l.15.07c0-.45,0-.86,0-1.28a.36.36,0,0,1,.22-.37L10,3.36Z" transform="translate(0 0)"/><path class="cls-1" d="M11.82,11.82V9.49A.27.27,0,0,1,12,9.2a.24.24,0,0,1,.31.19.55.55,0,0,1,0,.18V12c0,.29-.09.38-.38.38H10.52a.5.5,0,0,1-.17,0,.23.23,0,0,1-.19-.26.23.23,0,0,1,.24-.23h1.42Z" transform="translate(0 0)"/></svg>