<svg id="Layer_1" data-name="Layer 1" xmlns="http://www.w3.org/2000/svg" viewBox="0 0 16 16"><defs><style>.cls-1{fill:#64328a;}</style></defs><path class="cls-1" d="M9.27,15.27V10L3.59,6.77V7.6a.82.82,0,0,1,0,.22A.22.22,0,0,1,3.34,8a.21.21,0,0,1-.22-.18.57.57,0,0,1,0-.13c0-.41,0-.82,0-1.23a.36.36,0,0,1,.23-.36l6-3.21a.38.38,0,0,1,.41,0l6,3.31a.41.41,0,0,1,.23.39V12.3a.39.39,0,0,1-.24.39l-6,3.22a1,1,0,0,1-.21.09l-.21-.11c-.61-.38-1.22-.76-1.82-1.15l-.15-.1a.23.23,0,0,1,0-.3.2.2,0,0,1,.26-.11.71.71,0,0,1,.18.08l1.33.84A1.19,1.19,0,0,0,9.27,15.27ZM9.79,10v5.32l5.71-3V6.92l-1.67.9v2s-.05.09-.08.1c-.52.29-1,.58-1.56.85-.06,0-.21,0-.27-.06a.41.41,0,0,1-.07-.27c0-.44,0-.89,0-1.33a2.06,2.06,0,0,0,0-.21Zm-6-3.63,5.7,3.23,2.05-1.12L5.8,5.33Zm9.77,1,1.64-.9L9.53,3.34l-1.67.87ZM6.34,5l.14.08,5.61,3.06a.42.42,0,0,1,.27.45c0,.43,0,.86,0,1.29a1.54,1.54,0,0,0,0,.19l1-.55V7.79l-6-3.31Z" transform="translate(0)"/><path class="cls-1" d="M6.86,12.87l-.35.84c.12.14.25.28.37.43s.14.26,0,.42L6.41,15a.28.28,0,0,1-.45.05l-.49-.36-.83.35c0,.21-.07.43-.11.64s-.09.25-.3.25H3.52c-.2,0-.26-.05-.3-.25s-.06-.42-.1-.64l-.83-.35-.47.37c-.2.15-.27.15-.44,0l-.5-.5a.25.25,0,0,1,0-.39l.39-.51c-.06-.15-.13-.28-.18-.42S1,13,.91,12.85l-.6-.09c-.23,0-.31-.11-.31-.35v-.66a.29.29,0,0,1,.28-.33l.62-.08.35-.84L.88,10c-.14-.19-.14-.28,0-.45l.48-.48c.16-.15.23-.16.41,0l.49.39.83-.35c0-.2.07-.42.1-.63s.11-.27.31-.27h.71a.25.25,0,0,1,.29.24c0,.22.07.44.1.66l.84.35L6,9.07c.17-.14.26-.13.42,0s.32.33.47.5a.27.27,0,0,1,0,.41l-.37.51.35.83.61.1c.24.05.29.11.29.34v.67c0,.2-.07.28-.27.31Zm-5.52-3,.35.46a.35.35,0,0,1,0,.41c-.12.28-.24.56-.34.84a.34.34,0,0,1-.31.29,5.67,5.67,0,0,0-.57.1v.38l.56.11a.34.34,0,0,1,.27.26,8,8,0,0,0,.35.85.33.33,0,0,1,0,.39c-.12.14-.23.3-.33.43l.28.31.46-.36a.35.35,0,0,1,.39,0c.28.12.57.25.86.35a.35.35,0,0,1,.28.3c0,.2.06.39.09.58h.38c0-.2,0-.38,0-.56s.07-.25.27-.32.56-.22.84-.33l.23-.11.64.47.28-.3-.33-.43a.32.32,0,0,1,0-.39,8.58,8.58,0,0,0,.35-.83c.09-.26.13-.31.39-.34l.49-.07v-.4l-.57-.08a.3.3,0,0,1-.29-.26,2.46,2.46,0,0,0-.34-.86c-.12-.2-.12-.25,0-.44l.32-.42-.27-.31-.43.33a.38.38,0,0,1-.47,0,4.09,4.09,0,0,0-.75-.31c-.26-.09-.32-.13-.36-.41s0-.33-.07-.49H3.67c0,.2-.07.4-.1.6s-.12.23-.27.28a9,9,0,0,0-.85.36.29.29,0,0,1-.36,0l-.47-.35Z" transform="translate(0)"/><path class="cls-1" d="M6.2,2.33a.35.35,0,0,1-.44-.14,1.37,1.37,0,0,0-1.59-.43,1.45,1.45,0,0,0-.86,1.49l0,0h1c.25,0,.34.18.2.39s-.37.52-.56.77L2.58,6.39a.33.33,0,0,1-.4.18L2,6.4.12,3.72C.05,3.63,0,3.53,0,3.4s.21-.14.33-.14h1V2.54A2.62,2.62,0,0,1,1.89.93,2.27,2.27,0,0,1,4.13,0a2.39,2.39,0,0,1,2,1.54A1.93,1.93,0,0,1,6.22,2,1,1,0,0,1,6.2,2.33ZM2.3,5.91,3.9,3.73c-.3,0-.55,0-.79,0s-.28-.08-.27-.25a4.68,4.68,0,0,1,.09-1A1.82,1.82,0,0,1,5.25,1.21l.16,0-.07-.1a1.91,1.91,0,0,0-2-.63A2,2,0,0,0,1.87,2.15a8.79,8.79,0,0,0-.05,1.26.31.31,0,0,1-.16.33H.72Z" transform="translate(0)"/><path class="cls-1" d="M3.88,10.22A1.9,1.9,0,1,1,2,12.1,1.89,1.89,0,0,1,3.88,10.22Zm0,3.3a1.42,1.42,0,0,0,1.4-1.43,1.4,1.4,0,1,0-1.4,1.43Z" transform="translate(0)"/></svg>