<svg id="Layer_1" data-name="Layer 1" xmlns="http://www.w3.org/2000/svg" viewBox="0 0 16 16"><defs><style>.cls-1{fill:#48ae4d;}</style></defs><path class="cls-1" d="M6.91,14.93V16H2.76A2.65,2.65,0,0,1,0,13.23V2.77A2.65,2.65,0,0,1,2.76,0H13.28A2.65,2.65,0,0,1,16,2.72V6.63c0,.09,0,.18,0,.28H14.92V2.76a1.58,1.58,0,0,0-1.68-1.69H10.93l-.27,0V5.18c0,.52-.26.74-.77.62s-1-.23-1.55-.39a2.31,2.31,0,0,0-1.25.15c-.35.07-.69.17-1,.25a.53.53,0,0,1-.72-.57V1.09l-.27,0H2.76A1.58,1.58,0,0,0,1.07,2.76V13.22a1.58,1.58,0,0,0,1.7,1.71H6.91ZM6.42,1.09v3.6a3.68,3.68,0,0,1,3.16,0V1.09Z"/><path class="cls-1" d="M11.75,7.48a4.26,4.26,0,1,1-4.27,4.25A4.25,4.25,0,0,1,11.75,7.48Zm3.18,4.26a3.2,3.2,0,1,0-3.23,3.19A3.2,3.2,0,0,0,14.93,11.74Z"/><path class="cls-1" d="M3.21,13.34a.54.54,0,1,1,0-1.07.53.53,0,0,1,.54.52A.54.54,0,0,1,3.21,13.34Z"/><path class="cls-1" d="M5.87,12.79a.54.54,0,1,1-1.07,0,.54.54,0,0,1,1.07,0Z"/><path class="cls-1" d="M11.45,11.84l1.21-1.27.71.78s-.06.08-.12.14L11.9,12.84a.53.53,0,0,1-.87,0c-.33-.33-.65-.68-1-1l.76-.73Z"/></svg>