<svg id="Layer_1" data-name="Layer 1" xmlns="http://www.w3.org/2000/svg" viewBox="0 0 13.96 16"><defs><style>.cls-1{fill:#282a2d;}.cls-2{fill:#fff;}</style></defs><ellipse class="cls-1" cx="11.22" cy="2.71" rx="2.74" ry="2.71"/><path class="cls-2" d="M11.48,1.71a.83.83,0,0,1,.76-.36.86.86,0,0,1,.77.36,1.82,1.82,0,0,1,.23,1,1.78,1.78,0,0,1-.23,1,.86.86,0,0,1-.77.36.83.83,0,0,1-.76-.36,1.78,1.78,0,0,1-.24-1A1.81,1.81,0,0,1,11.48,1.71Zm1.09.43a.31.31,0,0,0-.33-.2.3.3,0,0,0-.32.2,1.41,1.41,0,0,0-.08.56,2.22,2.22,0,0,0,0,.41.55.55,0,0,0,.11.27.36.36,0,0,0,.26.1.35.35,0,0,0,.26-.1.56.56,0,0,0,.12-.27,2.22,2.22,0,0,0,0-.41A1.62,1.62,0,0,0,12.57,2.14Z" transform="translate(-1.02)"/><path class="cls-1" d="M12.32,12.59a1.07,1.07,0,0,0-.45-.42,1.24,1.24,0,0,1-.7-1.13v-3a4.43,4.43,0,0,0-3.1-4.23,1.32,1.32,0,0,0-2.63,0A4.48,4.48,0,0,0,3.3,5.3a4.39,4.39,0,0,0-1,2.76v3a1.3,1.3,0,0,1-.19.67,1.19,1.19,0,0,1-.51.46,1.13,1.13,0,0,0-.45.42,1.1,1.1,0,0,0-.17.59A1.12,1.12,0,0,0,2.14,14.3H4.73a2.06,2.06,0,0,0,4,0h2.59a1.12,1.12,0,0,0,1.12-1.12A1.1,1.1,0,0,0,12.32,12.59ZM3.06,11v-3a3.69,3.69,0,0,1,2.82-3.6.38.38,0,0,0,.28-.4.15.15,0,0,1,0-.07A.61.61,0,0,1,7.36,4v.07a.36.36,0,0,0,.27.4,3.7,3.7,0,0,1,2.82,3.6v3a2,2,0,0,0,1.1,1.78.33.33,0,0,1,.16.15.37.37,0,0,1,.06.21.4.4,0,0,1-.4.4H2.14a.4.4,0,0,1-.4-.4A.37.37,0,0,1,1.8,13,.38.38,0,0,1,2,12.82a2,2,0,0,0,.8-.73A2,2,0,0,0,3.06,11Zm3.7,4.24a1.35,1.35,0,0,1-1.29-1H8A1.35,1.35,0,0,1,6.76,15.28Z" transform="translate(-1.02)"/></svg>