<svg id="Layer_1" data-name="Layer 1" xmlns="http://www.w3.org/2000/svg" viewBox="0 0 16 16"><defs><style>.cls-1{fill:#e52629;}</style></defs><path class="cls-1" d="M4.79,13.35a1.64,1.64,0,0,1-1.61-1.8V1.8c0-.57-.16-.73-.73-.73H0V0L.22,0H2.57A1.61,1.61,0,0,1,4.25,1.68v1.5H5.66A4.06,4.06,0,0,1,9.76,0a4,4,0,0,1,3.77,3.2h1.73c.65,0,.84.23.69.86-.45,1.78-.89,3.57-1.35,5.36A1.61,1.61,0,0,1,13,10.67H4.26c0,.39,0,.76,0,1.13a.51.51,0,0,0,.48.46H16v1.05H15c0,.33,0,.63-.06.92A2.11,2.11,0,0,1,12.65,16a2.14,2.14,0,0,1-2-2c0-.19,0-.39,0-.62H9.05a2.36,2.36,0,0,1-.79,2.2,2.15,2.15,0,0,1-3-.39A2.51,2.51,0,0,1,4.79,13.35Zm8.79-9.07a4,4,0,0,1-1.12,2.48,4,4,0,0,1-5,.61,4,4,0,0,1-1.9-3.08H4.27V9.6H13a.51.51,0,0,0,.53-.43c.14-.53.27-1.05.4-1.57.27-1.1.55-2.2.83-3.32Zm-4-3.21A2.93,2.93,0,1,0,12.53,4,2.95,2.95,0,0,0,9.59,1.07ZM5.86,13.34c0,.23,0,.45,0,.65a1.06,1.06,0,0,0,1.35.9A1.19,1.19,0,0,0,8,13.34Zm5.87,0c0,.22,0,.41,0,.59a1.08,1.08,0,0,0,1,1,1,1,0,0,0,1.1-.85,4.56,4.56,0,0,0,0-.74Z" transform="translate(0 0)"/><path class="cls-1" d="M7.73,3l.79-.79,1,1.1,1.06-1.12.76.82L10.33,4l1.1,1-.81.78-1-1.07L8.57,5.84l-.76-.78,1.06-1Z" transform="translate(0 0)"/></svg>