<svg id="Layer_1" data-name="Layer 1" xmlns="http://www.w3.org/2000/svg" viewBox="0 0 16 14.97"><defs><style>.cls-1{fill:#a5a4a4;}</style></defs><path class="cls-1" d="M3.16,1.83c0-.14,0-.28,0-.42A1,1,0,0,1,4.58.63a.94.94,0,0,1,.52.83v.37h5.8V1.48a1,1,0,0,1,.88-1,1,1,0,0,1,1,.75,2.3,2.3,0,0,1,0,.37,1.21,1.21,0,0,1,0,.2H13c.47,0,.93,0,1.4,0A1.81,1.81,0,0,1,16,3.38a2.22,2.22,0,0,1,0,.37v9.84a1.84,1.84,0,0,1-1.48,1.86,2.17,2.17,0,0,1-.44,0H1.92A1.84,1.84,0,0,1,.05,14.06a2.1,2.1,0,0,1,0-.43V3.71A1.83,1.83,0,0,1,1.46,1.89a2.42,2.42,0,0,1,.47,0H3.16ZM.53,5.28v8.3A1.31,1.31,0,0,0,1.91,15H14.09a1.31,1.31,0,0,0,1.38-1.37V5.28Zm4-3c0-.25,0-.49,0-.73a.44.44,0,1,0-.87,0V3a.44.44,0,1,0,.87,0C4.57,2.74,4.57,2.49,4.57,2.25Zm6.87,0c0,.24,0,.48,0,.72a.42.42,0,0,0,.42.47A.42.42,0,0,0,12.31,3V1.51a.44.44,0,1,0-.87,0C11.43,1.76,11.44,2,11.44,2.25Z" transform="translate(0 -0.52)"/><path class="cls-1" d="M9.35,9.3h.72a.27.27,0,0,1,.3.3v1.46a.27.27,0,0,1-.29.3H8.6a.27.27,0,0,1-.29-.29c0-.49,0-1,0-1.48A.26.26,0,0,1,8.6,9.3Z" transform="translate(0 -0.52)"/><path class="cls-1" d="M5.56,8.27H4.84a.28.28,0,0,1-.3-.3V6.5a.27.27,0,0,1,.3-.29H6.32a.26.26,0,0,1,.28.3V8a.28.28,0,0,1-.3.31Z" transform="translate(0 -0.52)"/><path class="cls-1" d="M9.33,8.27H8.61c-.19,0-.3-.1-.3-.3,0-.49,0-1,0-1.46a.27.27,0,0,1,.3-.3h1.45a.28.28,0,0,1,.31.31V8c0,.2-.11.3-.32.31Z" transform="translate(0 -0.52)"/><path class="cls-1" d="M9.34,12.4h.73a.26.26,0,0,1,.3.29v1.47a.27.27,0,0,1-.29.29c-.49,0-1,0-1.48,0a.26.26,0,0,1-.29-.29c0-.49,0-1,0-1.48,0-.19.11-.28.3-.28Z" transform="translate(0 -0.52)"/><path class="cls-1" d="M5.58,9.3h.71a.27.27,0,0,1,.31.31v1.44a.27.27,0,0,1-.31.31H4.85a.28.28,0,0,1-.31-.31V9.62a.28.28,0,0,1,.32-.32Z" transform="translate(0 -0.52)"/><path class="cls-1" d="M5.57,12.4h.72c.21,0,.31.09.31.31v1.44a.27.27,0,0,1-.3.3c-.49,0-1,0-1.45,0-.21,0-.31-.1-.31-.3V12.71c0-.22.1-.31.31-.31Z" transform="translate(0 -0.52)"/><path class="cls-1" d="M3.31,10.33V11a.28.28,0,0,1-.32.32H1.57A.28.28,0,0,1,1.25,11V9.62a.28.28,0,0,1,.32-.32H3c.22,0,.32.1.32.33Z" transform="translate(0 -0.52)"/><path class="cls-1" d="M2.29,12.4H3c.2,0,.3.09.3.29v1.48a.25.25,0,0,1-.28.28q-.75,0-1.5,0a.25.25,0,0,1-.28-.28V12.69c0-.2.11-.29.31-.29Z" transform="translate(0 -0.52)"/><path class="cls-1" d="M14.13,13.44v.71a.26.26,0,0,1-.28.3c-.5,0-1,0-1.49,0a.26.26,0,0,1-.28-.29q0-.73,0-1.47a.26.26,0,0,1,.29-.29h1.48a.26.26,0,0,1,.28.29C14.14,12.94,14.13,13.19,14.13,13.44Z" transform="translate(0 -0.52)"/><path class="cls-1" d="M13.1,11.36h-.7a.29.29,0,0,1-.33-.31V9.61c0-.21.11-.31.31-.31h1.45c.2,0,.3.1.3.31v1.45a.27.27,0,0,1-.29.3Z" transform="translate(0 -0.52)"/><path class="cls-1" d="M13.1,8.27h-.72a.27.27,0,0,1-.3-.3q0-.73,0-1.47a.26.26,0,0,1,.29-.29h1.48a.26.26,0,0,1,.28.3V8a.27.27,0,0,1-.29.3Z" transform="translate(0 -0.52)"/></svg>