<svg id="Layer_1" data-name="Layer 1" xmlns="http://www.w3.org/2000/svg" viewBox="0 0 16 8.29"><defs><style>.cls-1{fill:#010101;}</style></defs><path class="cls-1" d="M8,12.14a9.84,9.84,0,0,1-7.9-4L0,8l.1-.15a9.8,9.8,0,0,1,15.8,0L16,8l-.1.14A9.87,9.87,0,0,1,8,12.14ZM.59,8A9.31,9.31,0,0,0,15.4,8,9.31,9.31,0,0,0,.59,8Z" transform="translate(0 -3.86)"/><path class="cls-1" d="M8,9.67A1.67,1.67,0,1,1,9.67,8,1.67,1.67,0,0,1,8,9.67ZM8,6.81A1.19,1.19,0,1,0,9.19,8,1.19,1.19,0,0,0,8,6.81Z" transform="translate(0 -3.86)"/></svg>