<svg id="Layer_1" data-name="Layer 1" xmlns="http://www.w3.org/2000/svg" viewBox="0 0 16 14.69"><defs><style>.cls-1{fill:#05ab9e;}</style></defs><path class="cls-1" d="M16,7a3,3,0,0,0-3-3H11.33V2.32A1.66,1.66,0,0,0,9.67.65H8v.67H9.67a1,1,0,0,1,1,1V12H.67V8H0v4.67H1.45a1.93,1.93,0,0,0-.12.67,2,2,0,1,0,4,0,2.19,2.19,0,0,0-.11-.67h5.56a2.19,2.19,0,0,0-.11.67,2,2,0,1,0,4,0,1.93,1.93,0,0,0-.12-.67H16ZM4.67,13.34a1.34,1.34,0,1,1-2.49-.67h2.3A1.36,1.36,0,0,1,4.67,13.34ZM13,4.66A2.33,2.33,0,0,1,15.33,7V8h-4V4.66Zm1,8.68a1.34,1.34,0,1,1-2.67,0,1.36,1.36,0,0,1,.19-.67h2.3A1.35,1.35,0,0,1,14,13.34ZM11.33,12V8.67h4V12ZM6.67,1.32H0V.65H6.67ZM5.33,4H0V3.33H5.33ZM4,6.66H0V6H4Z" transform="translate(0 -0.65)"/></svg>