<svg id="Layer_1" data-name="Layer 1" xmlns="http://www.w3.org/2000/svg" viewBox="0 0 16 12.4"><defs><style>.cls-1{fill:#010101;}</style></defs><path class="cls-1" d="M9,5.87a.47.47,0,0,1-.83.26L5,2.89V13.74a.46.46,0,0,1-.92,0V2.89L.83,6.13a.51.51,0,0,1-.66.07A.44.44,0,0,1,0,5.87a.49.49,0,0,1,.13-.35L3.38,2.27a1.63,1.63,0,0,1,2.28,0L8.9,5.52A.46.46,0,0,1,9,5.87Z" transform="translate(0 -1.8)"/><path class="cls-1" d="M16,10.13a.45.45,0,0,1-.13.35l-3.25,3.25a1.62,1.62,0,0,1-2.27,0L7.1,10.48A.45.45,0,0,1,7,10.13a.44.44,0,0,1,.17-.33.5.5,0,0,1,.65.07L11,13.11V2.26a.47.47,0,0,1,.46-.46.46.46,0,0,1,.46.46V13.11l3.24-3.24a.5.5,0,0,1,.65-.07A.47.47,0,0,1,16,10.13Z" transform="translate(0 -1.8)"/></svg>