<svg id="Layer_1" data-name="Layer 1" xmlns="http://www.w3.org/2000/svg" viewBox="0 0 16 16"><defs><style>.cls-1{fill:#282a2d;}</style></defs><path class="cls-1" d="M8,8.49a2.23,2.23,0,1,1,2.23-2.23A2.23,2.23,0,0,1,8,8.49ZM8,5A1.28,1.28,0,1,0,9.27,6.26,1.27,1.27,0,0,0,8,5Z"/><path class="cls-1" d="M11.66,12H4.34V11.4A3.77,3.77,0,0,1,8,7.54a3.77,3.77,0,0,1,3.67,3.86V12ZM5.3,11h5.4A2.8,2.8,0,0,0,8,8.49,2.8,2.8,0,0,0,5.3,11Z"/><path class="cls-1" d="M8,16a8,8,0,1,1,8-8A8,8,0,0,1,8,16ZM8,1A7.05,7.05,0,1,0,15.05,8,7.05,7.05,0,0,0,8,1Z"/></svg>