<svg id="Layer_1" data-name="Layer 1" xmlns="http://www.w3.org/2000/svg" viewBox="0 0 13.54 16"><defs><style>.cls-1{fill:#2dabe3;}</style></defs><path class="cls-1" d="M13.74,3.42H11.48V3.34a3.48,3.48,0,0,0-7,0v.09H2.26c-.35,4.2-.69,8.38-1,12.57H14.77Zm-8.23-.1a2.4,2.4,0,0,1,1.14-2,2.47,2.47,0,0,1,2.7,0,2.4,2.4,0,0,1,1.14,2v.1h-5ZM2.29,15l0-.1L3.16,4.41h9.68V4.5L13.7,15Z" transform="translate(-1.23 0)"/><path class="cls-1" d="M8.61,9.24V7.91h1.61V7H8.6V6.35H7.67V7H5.89v3.18H7.66v1.34H6v.94H7.67v.64H8.6v-.66h1.73V9.24Zm-.95,0H6.82V7.92h.84ZM9.4,11.51H8.61V10.18H9.4Z" transform="translate(-1.23 0)"/></svg>