<svg id="Layer_1" data-name="Layer 1" xmlns="http://www.w3.org/2000/svg" viewBox="0 0 16 16"><defs><style>.cls-1{fill:#f39323;}</style></defs><path class="cls-1" d="M12.43,2.5l-.87-.73a2.41,2.41,0,0,1-.24-.21.48.48,0,0,1-.11-.29c0-.08.13-.17.22-.19.4-.13.82-.24,1.23-.35l2.5-.7c.28-.08.42,0,.4.32-.1,1.31-.2,2.61-.32,3.92a.38.38,0,0,1-.16.28.42.42,0,0,1-.31-.08c-.25-.19-.48-.4-.73-.61L13.91,4a13.84,13.84,0,0,1-8.3,5.56,12.94,12.94,0,0,1-4.21.27c-.24,0-.36-.23-.23-.39a.47.47,0,0,1,.26-.11,13.11,13.11,0,0,0,3.92-.81,13.47,13.47,0,0,0,7-5.83s.05-.09.08-.14A.21.21,0,0,1,12.43,2.5Z" transform="translate(0 0)"/><path class="cls-1" d="M6.93,4.47A3.28,3.28,0,0,1,3.69,7.8,3.27,3.27,0,0,1,.43,4.48,3.29,3.29,0,0,1,3.7,1.17,3.29,3.29,0,0,1,6.93,4.47Zm-3,2a1.11,1.11,0,0,0,.89-1A1.12,1.12,0,0,0,4,4.25V3.07a.61.61,0,0,1,.4.54.25.25,0,0,0,.27.26c.15,0,.23-.12.23-.31a1.13,1.13,0,0,0-.73-1L4,2.51C3.89,2.3,4,2,3.68,2s-.22.33-.27.54a1.13,1.13,0,0,0,0,2.22V5.9A.59.59,0,0,1,3,5.36c0-.19-.13-.27-.29-.24s-.22.15-.21.3a1,1,0,0,0,.43.8,3.59,3.59,0,0,0,.47.27c0,.18-.08.52.28.51S3.89,6.68,4,6.46Z" transform="translate(0 0)"/><path class="cls-1" d="M11.34,14.59a.9.9,0,0,1,0-1.15.88.88,0,0,1,0-1.14.89.89,0,0,1,0-1.15.88.88,0,0,1,0-1.15.86.86,0,0,1,0-1.11,3.14,3.14,0,0,1-.18-.51.78.78,0,0,1,.75-.91c1.11,0,2.23,0,3.34,0a.8.8,0,0,1,.66,1.21,1.62,1.62,0,0,1-.1.18.89.89,0,0,1,0,1.14.9.9,0,0,1,0,1.15.9.9,0,0,1,0,1.14.93.93,0,0,1,0,1.14c.26.57.26.71,0,1.16a.56.56,0,0,0,.05.08.83.83,0,0,1,.06.88.78.78,0,0,1-.76.44h-3a.87.87,0,0,1-.88-.44A.85.85,0,0,1,11.34,14.59Zm2.21-1.4h1.56c.25,0,.38-.11.38-.32s-.13-.32-.38-.32H12c-.25,0-.39.15-.37.36s.15.28.37.28Zm0-3.44H15.1a.66.66,0,0,0,.25,0,.3.3,0,0,0,.13-.37c-.05-.17-.19-.22-.36-.22H12c-.25,0-.39.13-.38.33s.14.31.38.31Zm0,5.1H12c-.24,0-.37.11-.38.3s.13.33.38.33h3.11c.25,0,.38-.12.37-.33s-.13-.3-.37-.3Zm0-3.95h1.62a.29.29,0,0,0,.32-.32.3.3,0,0,0-.31-.31H12c-.24,0-.38.12-.38.31s.14.32.37.33h1.55Zm0,1.14h1.56c.24,0,.37-.11.37-.31s-.12-.33-.37-.33H12c-.24,0-.39.13-.38.33s.14.31.38.31Zm0,1.66H12c-.24,0-.38.11-.39.31s.14.33.38.33H15.1c.26,0,.39-.12.4-.32s-.14-.32-.39-.32Zm0-5.09h1.57c.18,0,.33,0,.37-.25S15.39,8,15.13,8H11.92a.31.31,0,0,0,0,.62h1.65Z" transform="translate(0 0)"/><path class="cls-1" d="M5.73,11.21a3.37,3.37,0,0,1-.15-.68.76.76,0,0,1,.78-.78c1.09,0,2.18,0,3.27,0a.82.82,0,0,1,.65,1.31.47.47,0,0,1-.06.09.9.9,0,0,1,0,1.15.9.9,0,0,1,0,1.14.89.89,0,0,1,0,1.13,2.57,2.57,0,0,1,.17.39.8.8,0,0,1-.76,1H6.35a.84.84,0,0,1-.58-1.4.89.89,0,0,1,0-1.14.9.9,0,0,1,0-1.15A.89.89,0,0,1,5.73,11.21ZM8,12.55H6.46c-.25,0-.39.11-.39.31s.13.33.4.33H9.53c.27,0,.41-.12.4-.33s-.14-.31-.4-.31Zm0,2.3H6.43c-.23,0-.36.11-.36.3s.12.33.35.33H9.57c.23,0,.37-.12.36-.32s-.13-.31-.37-.31Zm0-4.59H6.43c-.24,0-.37.12-.36.33s.13.3.35.31H9.59c.22,0,.35-.14.34-.33a.3.3,0,0,0-.34-.31ZM8,12H9.54c.26,0,.39-.11.39-.32s-.13-.32-.39-.32H6.46c-.26,0-.39.12-.39.32s.13.32.38.32ZM8,13.7H6.37a.32.32,0,0,0,0,.63H9.62a.32.32,0,0,0,.3-.43.33.33,0,0,0-.35-.21Z" transform="translate(0 0)"/><path class="cls-1" d="M.21,14.59a.89.89,0,0,1,0-1.14,2.25,2.25,0,0,1-.12-.21A.81.81,0,0,1,.8,12.05C1.88,12,3,12,4.06,12a.79.79,0,0,1,.72.46.8.8,0,0,1,0,.83l-.07.11a.87.87,0,0,1,0,1.1,2.76,2.76,0,0,1,.17.62.78.78,0,0,1-.8.83C3,16,1.89,16,.81,16a.82.82,0,0,1-.66-1.3Zm2.23-2H.9c-.27,0-.4.11-.4.33s.14.31.4.31H4c.25,0,.4-.12.4-.33s-.15-.31-.4-.31Zm0,2.93H4c.23,0,.37-.12.37-.32s-.14-.31-.37-.31H.85a.31.31,0,0,0-.34.39.32.32,0,0,0,.36.24Zm0-1.14H4c.26,0,.42-.18.36-.4s-.2-.24-.38-.24H.84a.31.31,0,0,0-.32.43.35.35,0,0,0,.37.21Z" transform="translate(0 0)"/><path class="cls-1" d="M3.43,4.16A.54.54,0,0,1,3,3.61a.54.54,0,0,1,.41-.53V4.16Z" transform="translate(0 0)"/><path class="cls-1" d="M4,5.88v-1a.55.55,0,0,1,.4.54A.53.53,0,0,1,4,5.88Z" transform="translate(0 0)"/></svg>