<svg id="Layer_1" data-name="Layer 1" xmlns="http://www.w3.org/2000/svg" viewBox="0 0 15.83 16"><defs><style>.cls-1{fill:#05ab9e;}</style></defs><path class="cls-1" d="M15.5,0H12.23l1.35,1.35L10.35,4.58,6.17.4.09,6.49l1,1,5.1-5.1,4.18,4.18,4.21-4.22,1.35,1.35V.41A.41.41,0,0,0,15.5,0Z" transform="translate(-0.09)"/><polygon class="cls-1" points="2.28 9.53 2.28 16 0.89 16 0.89 10.92 2.28 9.53"/><polygon class="cls-1" points="5.75 6.05 5.75 16 4.36 16 4.36 7.44 5.75 6.05"/><path class="cls-1" d="M12.09,8.35a3.83,3.83,0,1,0,3.82,3.82A3.83,3.83,0,0,0,12.09,8.35Zm.73,6.25h-.21v.72a4.21,4.21,0,0,1-.51,0,2.94,2.94,0,0,1-.51,0V14.6h-.13A1.48,1.48,0,0,1,10,13.26h1a.46.46,0,0,0,.43.32h1.36a.37.37,0,0,0,.36-.37.36.36,0,0,0-.29-.36l-1.78-.36a1.38,1.38,0,0,1,.27-2.74h.21V9h1v.76h.13a1.48,1.48,0,0,1,1.46,1.34h-1a.43.43,0,0,0-.42-.32H11.38a.36.36,0,0,0-.36.36.36.36,0,0,0,.29.36l1.78.36a1.39,1.39,0,0,1-.27,2.75Z" transform="translate(-0.09)"/></svg>