<svg id="Layer_1" data-name="Layer 1" xmlns="http://www.w3.org/2000/svg" viewBox="0 0 15.38 16"><defs><style>.cls-1{fill:#05ab9e;}</style></defs><path class="cls-1" d="M13.9,1.39H10.81l-.19-.21a3.5,3.5,0,0,0-5.24,0l-.19.21H2.1A1.8,1.8,0,0,0,.31,3.2V15.52H6.56a6.36,6.36,0,0,1-.51-.83H1.12V3.2a1,1,0,0,1,1-1H4.65L4.52,3a3.94,3.94,0,0,0,0,.6v.75H5.71L7.51.59l3,1.51-1,2.21h2V3.56a3.47,3.47,0,0,0-.06-.6l-.12-.75H13.9a1,1,0,0,1,1,1V5.79a5.55,5.55,0,0,1,.81.51V3.2A1.81,1.81,0,0,0,13.9,1.39Z" transform="translate(-0.31)"/><path class="cls-1" d="M11.33,7.21a4.4,4.4,0,1,0,4.36,4.39A4.37,4.37,0,0,0,11.33,7.21Zm0,8.23a3.84,3.84,0,1,1,3.81-3.84A3.83,3.83,0,0,1,11.33,15.44Z" transform="translate(-0.31)"/><path class="cls-1" d="M12.26,11.93V9.4H10.41v2.53H8.54l2.36,2.33a.63.63,0,0,0,.87,0l2.36-2.33Zm-.78,2a.22.22,0,0,1-.15.06.24.24,0,0,1-.14,0L9.55,12.35h1.26V9.81h1v2.54h1.26Z" transform="translate(-0.31)"/></svg>