<svg id="Layer_1" data-name="Layer 1" xmlns="http://www.w3.org/2000/svg" viewBox="0 0 14.38 16"><defs><style>.cls-1{fill:#85c48e;}</style></defs><path class="cls-1" d="M8.05,9.3a.82.82,0,0,1-.88-.82A.83.83,0,0,1,8,7.65a.81.81,0,0,1,.61.28A.42.42,0,0,0,9.2,8a.39.39,0,0,0,0-.58A1.67,1.67,0,0,0,8.63,7l-.22-.09V6.48a.41.41,0,0,0-.82,0v.39L7.37,7A1.65,1.65,0,0,0,8,10.13a1,1,0,0,1,.92,1,1,1,0,0,1-1,1,1,1,0,0,1-1-.68.52.52,0,0,0-.21-.23.58.58,0,0,0-.18,0,.35.35,0,0,0-.14,0,.32.32,0,0,0-.23.21.37.37,0,0,0,0,.31,1.87,1.87,0,0,0,1.17,1.14l.24.07v.36a.41.41,0,1,0,.82,0v-.4l.21-.09a1.85,1.85,0,0,0,1.13-1.61v-.08A1.84,1.84,0,0,0,8.05,9.3Zm0,0a.82.82,0,0,1-.88-.82A.83.83,0,0,1,8,7.65a.81.81,0,0,1,.61.28A.42.42,0,0,0,9.2,8a.39.39,0,0,0,0-.58A1.67,1.67,0,0,0,8.63,7l-.22-.09V6.48a.41.41,0,0,0-.82,0v.39L7.37,7A1.65,1.65,0,0,0,8,10.13a1,1,0,0,1,.92,1,1,1,0,0,1-1,1,1,1,0,0,1-1-.68.52.52,0,0,0-.21-.23.58.58,0,0,0-.18,0,.35.35,0,0,0-.14,0,.32.32,0,0,0-.23.21.37.37,0,0,0,0,.31,1.87,1.87,0,0,0,1.17,1.14l.24.07v.36a.41.41,0,1,0,.82,0v-.4l.21-.09a1.85,1.85,0,0,0,1.13-1.61v-.08A1.84,1.84,0,0,0,8.05,9.3Zm0,0a.82.82,0,0,1-.88-.82A.83.83,0,0,1,8,7.65a.81.81,0,0,1,.61.28A.42.42,0,0,0,9.2,8a.39.39,0,0,0,0-.58A1.67,1.67,0,0,0,8.63,7l-.22-.09V6.48a.41.41,0,0,0-.82,0v.39L7.37,7A1.65,1.65,0,0,0,8,10.13a1,1,0,0,1,.92,1,1,1,0,0,1-1,1,1,1,0,0,1-1-.68.52.52,0,0,0-.21-.23.58.58,0,0,0-.18,0,.35.35,0,0,0-.14,0,.32.32,0,0,0-.23.21.37.37,0,0,0,0,.31,1.87,1.87,0,0,0,1.17,1.14l.24.07v.36a.41.41,0,1,0,.82,0v-.4l.21-.09a1.85,1.85,0,0,0,1.13-1.61v-.08A1.84,1.84,0,0,0,8.05,9.3Zm0,0a.82.82,0,0,1-.88-.82A.83.83,0,0,1,8,7.65a.81.81,0,0,1,.61.28A.42.42,0,0,0,9.2,8a.39.39,0,0,0,0-.58A1.67,1.67,0,0,0,8.63,7l-.22-.09V6.48a.41.41,0,0,0-.82,0v.39L7.37,7A1.65,1.65,0,0,0,8,10.13a1,1,0,0,1,.92,1,1,1,0,0,1-1,1,1,1,0,0,1-1-.68.52.52,0,0,0-.21-.23.58.58,0,0,0-.18,0,.35.35,0,0,0-.14,0,.32.32,0,0,0-.23.21.37.37,0,0,0,0,.31,1.87,1.87,0,0,0,1.17,1.14l.24.07v.36a.41.41,0,1,0,.82,0v-.4l.21-.09a1.85,1.85,0,0,0,1.13-1.61v-.08A1.84,1.84,0,0,0,8.05,9.3Zm6.19-1.45a9.37,9.37,0,0,0-1.92-2.38A7,7,0,0,0,9.9,4.1l-.54-.18.41-.4a9.3,9.3,0,0,0,1.62-2.15.4.4,0,0,0-.13-.54A6.28,6.28,0,0,0,8,0,6.23,6.23,0,0,0,4.74.83a.41.41,0,0,0-.14.54A9.61,9.61,0,0,0,6.23,3.52l.41.4L6.1,4.1A7.88,7.88,0,0,0,1.76,7.85,6.46,6.46,0,0,0,1,12.65C1.59,15,3.62,16,8,16s6.41-1,7-3.35A6.46,6.46,0,0,0,14.24,7.85ZM5.78,1.69l-.26-.37.42-.15A6.14,6.14,0,0,1,8,.83a6.19,6.19,0,0,1,2.06.34l.42.15-.26.37a5.82,5.82,0,0,1-2.06,2L8,3.77,7.84,3.7A5.82,5.82,0,0,1,5.78,1.69Zm8.43,10.76c-.41,1.63-1.62,2.72-6.21,2.72s-5.8-1.09-6.21-2.72a5.65,5.65,0,0,1,.68-4.19C3.26,6.9,5,4.62,8,4.62s4.74,2.28,5.53,3.64A5.65,5.65,0,0,1,14.21,12.45ZM8.05,9.3a.82.82,0,0,1-.88-.82A.83.83,0,0,1,8,7.65a.81.81,0,0,1,.61.28A.42.42,0,0,0,9.2,8a.39.39,0,0,0,0-.58A1.67,1.67,0,0,0,8.63,7l-.22-.09V6.48a.41.41,0,0,0-.82,0v.39L7.37,7A1.65,1.65,0,0,0,8,10.13a1,1,0,0,1,.92,1,1,1,0,0,1-1,1,1,1,0,0,1-1-.68.52.52,0,0,0-.21-.23.58.58,0,0,0-.18,0,.35.35,0,0,0-.14,0,.32.32,0,0,0-.23.21.37.37,0,0,0,0,.31,1.87,1.87,0,0,0,1.17,1.14l.24.07v.36a.41.41,0,1,0,.82,0v-.4l.21-.09a1.85,1.85,0,0,0,1.13-1.61v-.08A1.84,1.84,0,0,0,8.05,9.3Zm0,0a.82.82,0,0,1-.88-.82A.83.83,0,0,1,8,7.65a.81.81,0,0,1,.61.28A.42.42,0,0,0,9.2,8a.39.39,0,0,0,0-.58A1.67,1.67,0,0,0,8.63,7l-.22-.09V6.48a.41.41,0,0,0-.82,0v.39L7.37,7A1.65,1.65,0,0,0,8,10.13a1,1,0,0,1,.92,1,1,1,0,0,1-1,1,1,1,0,0,1-1-.68.52.52,0,0,0-.21-.23.58.58,0,0,0-.18,0,.35.35,0,0,0-.14,0,.32.32,0,0,0-.23.21.37.37,0,0,0,0,.31,1.87,1.87,0,0,0,1.17,1.14l.24.07v.36a.41.41,0,1,0,.82,0v-.4l.21-.09a1.85,1.85,0,0,0,1.13-1.61v-.08A1.84,1.84,0,0,0,8.05,9.3Zm0,0a.82.82,0,0,1-.88-.82A.83.83,0,0,1,8,7.65a.81.81,0,0,1,.61.28A.42.42,0,0,0,9.2,8a.39.39,0,0,0,0-.58A1.67,1.67,0,0,0,8.63,7l-.22-.09V6.48a.41.41,0,0,0-.82,0v.39L7.37,7A1.65,1.65,0,0,0,8,10.13a1,1,0,0,1,.92,1,1,1,0,0,1-1,1,1,1,0,0,1-1-.68.52.52,0,0,0-.21-.23.58.58,0,0,0-.18,0,.35.35,0,0,0-.14,0,.32.32,0,0,0-.23.21.37.37,0,0,0,0,.31,1.87,1.87,0,0,0,1.17,1.14l.24.07v.36a.41.41,0,1,0,.82,0v-.4l.21-.09a1.85,1.85,0,0,0,1.13-1.61v-.08A1.84,1.84,0,0,0,8.05,9.3Z" transform="translate(-0.81)"/></svg>