<svg id="Layer_1" data-name="Layer 1" xmlns="http://www.w3.org/2000/svg" viewBox="0 0 16 16"><defs><style>.cls-1{fill:#30a9e1;}</style></defs><path class="cls-1" d="M15.75,4.17l-1.26-2.1L8,0,1.5,2.07.25,4.15A1.75,1.75,0,0,0,.11,5.66,1.72,1.72,0,0,0,1.19,6.72l.14,0v7L8,16l6.66-2.23v-7l.16-.06a1.72,1.72,0,0,0,1.07-1,1.76,1.76,0,0,0-.14-1.5ZM13.19,2.36,8,4.1,2.81,2.35,8,.7ZM.73,5.43A1.09,1.09,0,0,1,.82,4.5L1.87,2.74,7.49,4.63,6.19,6.81A1,1,0,0,1,5,7.27L1.4,6.08a1.08,1.08,0,0,1-.67-.65ZM2,7l2.74.92a1.7,1.7,0,0,0,2-.76l.9-1.5v9.53L2,13.29V7Zm12,6.3L8.32,15.18V5.65l.89,1.5A1.72,1.72,0,0,0,10.7,8a1.76,1.76,0,0,0,.55-.09L14,7v6.3Zm1.28-7.85a1.13,1.13,0,0,1-.66.64L11,7.27a1.06,1.06,0,0,1-1.25-.46L8.5,4.64l5.62-1.89,1.06,1.77a1.06,1.06,0,0,1,.09.92Z" transform="translate(0)"/></svg>