<svg id="Layer_1" data-name="Layer 1" xmlns="http://www.w3.org/2000/svg" viewBox="0 0 16 16"><defs><style>.cls-1{fill:#48ae4d;}</style></defs><path class="cls-1" d="M9.63,14.47l-1.35.8c-.36.21-.72.41-1.07.63a.41.41,0,0,1-.47,0L1.9,13.1l-1.7-1a.35.35,0,0,1-.2-.34V4.2a.35.35,0,0,1,.19-.34C2.39,2.6,4.59,1.32,6.79.05a.32.32,0,0,1,.35,0L12.22,3l1.45.84a.4.4,0,0,1,.24.4c0,1.63,0,3.25,0,4.87a.28.28,0,0,0,.18.3,3.48,3.48,0,0,1-.83,6.51,3.4,3.4,0,0,1-3.51-1.31Zm-2.9.93v-.25c0-2.27,0-4.55,0-6.82A.31.31,0,0,0,6.55,8L.83,4.7.46,4.5c0,.08,0,.14,0,.2q0,3.43,0,6.87a.29.29,0,0,0,.16.29c1.72,1,3.43,2,5.15,3Zm.44,0h.07l2.08-1.2c.11-.06,0-.12,0-.2a6.61,6.61,0,0,1-.3-1.14A3.46,3.46,0,0,1,13,9.07l.49.08V4.49l-.08,0-3,1.74a.22.22,0,0,0-.11.23V8.73a.65.65,0,0,1,0,.2A.2.2,0,0,1,9.89,9a.39.39,0,0,1-.09-.26c0-.65,0-1.3,0-1.95V6.61l-.17.09L7.36,8a.32.32,0,0,0-.19.32c0,2.28,0,4.55,0,6.83Zm8.36-2.87a3,3,0,1,0-3,3.06A3,3,0,0,0,15.53,12.49Zm-2.3-8.38A.94.94,0,0,0,13.06,4L7.11.55a.25.25,0,0,0-.31,0L4.32,2l-.1.08a.74.74,0,0,0,.12.09Q7.13,4,9.91,5.89a.23.23,0,0,0,.26,0c.7-.42,1.41-.83,2.12-1.24ZM9.6,6.21l-.11-.08L3.9,2.37a.24.24,0,0,0-.28,0L.85,4a1.53,1.53,0,0,0-.16.11l.06.05,6.1,3.52a.33.33,0,0,0,.24,0l1.48-.85Z" transform="translate(0 0)"/><path class="cls-1" d="M12.79,12.51l1.05,1a.74.74,0,0,1,.12.13.21.21,0,0,1-.3.3l-.33-.33-.83-.84-1,1-.2.19a.2.2,0,0,1-.29,0,.19.19,0,0,1,0-.3,2.83,2.83,0,0,1,.24-.25l.77-.76.14-.16-1-1-.13-.13a.21.21,0,0,1,0-.32.21.21,0,0,1,.33,0l.4.4.72.74.15-.14,1-1q.21-.21.36-.06c.1.1.09.22-.05.36Z" transform="translate(0 0)"/></svg>