<svg id="Layer_1" data-name="Layer 1" xmlns="http://www.w3.org/2000/svg" viewBox="0 0 16 16"><defs><style>.cls-1{fill:#e42829;}</style></defs><path class="cls-1" d="M4.68,7.74H1.22A1.13,1.13,0,0,1,0,6.53V1.21A1.12,1.12,0,0,1,1.2,0h7a1.12,1.12,0,0,1,1.2,1.2V6.55a1.13,1.13,0,0,1-1.2,1.19ZM4.69,1H1.28C1,1,1,1,1,1.27v5.2c0,.25,0,.28.28.28H8.11c.26,0,.28,0,.28-.27V1.26c0-.24,0-.26-.27-.26Z" transform="translate(0)"/><path class="cls-1" d="M11.3,16H7.8a1.13,1.13,0,0,1-1.17-.89,1.51,1.51,0,0,1,0-.3q0-2.69,0-5.37A1.12,1.12,0,0,1,7.78,8.26h7A1.11,1.11,0,0,1,16,9.42c0,1.8,0,3.61,0,5.41A1.12,1.12,0,0,1,14.8,16Zm0-6.75H7.9c-.28,0-.3,0-.3.3v5.14c0,.29,0,.31.31.31h6.78c.29,0,.31,0,.31-.3V9.54c0-.27,0-.29-.29-.29Z" transform="translate(0)"/><path class="cls-1" d="M0,12.12V9.33A1,1,0,0,1,1.06,8.26H5a1,1,0,0,1,1,1V15A1,1,0,0,1,5,16H1.07A1,1,0,0,1,0,14.93ZM5.09,9.25H1.21C1,9.25,1,9.3,1,9.47,1,11.23,1,13,1,14.76,1,15,1,15,1.23,15H4.85c.19,0,.24-.06.24-.25,0-1.76,0-3.51,0-5.27Z" transform="translate(0)"/><path class="cls-1" d="M9.91,3.87V1.06A1,1,0,0,1,11,0h4A1,1,0,0,1,16,1.06V6.69a1,1,0,0,1-1.06,1H11A1,1,0,0,1,9.91,6.68Zm5.09,0C15,3,15,2.1,15,1.21,15,1,15,1,14.78,1c-1.22,0-2.44,0-3.67,0-.17,0-.21.06-.21.23V6.53c0,.18,0,.22.22.22h3.66c.18,0,.22,0,.22-.22C15,5.64,15,4.76,15,3.87Z" transform="translate(0)"/></svg>