<svg id="Layer_1" data-name="Layer 1" xmlns="http://www.w3.org/2000/svg" viewBox="0 0 16 16"><defs><style>.cls-1{fill:#98c1e8;}</style></defs><path class="cls-1" d="M16,5.73c-.1.12-.19.25-.3.36L13.88,8c-.33.35-.45.35-.78,0l-.5-.51-.19-.16V15.4a1.18,1.18,0,0,1,0,.26A.36.36,0,0,1,12,16H4.14c-.46,0-.57-.11-.57-.58V7.35l-.25.23c-.18.17-.35.36-.52.53a.36.36,0,0,1-.55,0C1.55,7.38.84,6.65.14,5.91a.38.38,0,0,1,0-.59L2.34,3.05,3.63,1.74a.78.78,0,0,1,.26-.17A4.82,4.82,0,0,0,4.8,1.2,4.65,4.65,0,0,0,5.49.49C6.07-.09,5.84,0,6.63,0H9.78a.53.53,0,0,1,.45.21c.29.33.58.66.88,1a.35.35,0,0,0,.13.08l.95.32a.63.63,0,0,1,.2.13l3.48,3.6a1,1,0,0,1,.13.16ZM7.66,3.26l-.07,0c-.06.08-.11.16-.17.23-.25.27-.44.27-.7,0L5.29,2a.26.26,0,0,0-.2-.07c-.3.09-.6.2-.89.31A.46.46,0,0,0,4,2.32L1,5.5c-.09.09-.1.14,0,.24l1.4,1.47c.15.15.15.15.29,0l1-1a.35.35,0,0,1,.4-.09.35.35,0,0,1,.22.36V15c0,.24,0,.24.24.24h6.91c.25,0,.25,0,.25-.26V6.43a.4.4,0,0,1,.23-.37.31.31,0,0,1,.39.1l1,1.06c.14.14.14.15.29,0L14.77,6l.34-.4L15,5.48c-.83-.86-1.68-1.69-2.49-2.57a3,3,0,0,0-1.55-1,.26.26,0,0,0-.29.07c-.47.5-.94,1-1.42,1.48a.36.36,0,0,1-.6,0l-.24-.24a.51.51,0,0,0,0,.2c0,.51,0,1,0,1.54a.35.35,0,1,1-.69,0c0-.35,0-.71,0-1.06ZM5.73,1.32,7.1,2.75a4.38,4.38,0,0,1,.29-.34c.07-.08.08-.13,0-.21L6.2,1,6.11.89Zm4.55,0a.86.86,0,0,0-.07-.1L10,1C9.9.9,9.84.9,9.76,1c-.31.33-.62.65-.94,1s-.32.34,0,.67c.08.08.14.09.22,0l1.14-1.19ZM7,.76s0,.07.06.08L8,1.71c.07.07.11,0,.16,0L8.92.85,9,.76Z"/></svg>