<svg id="Layer_1" data-name="Layer 1" xmlns="http://www.w3.org/2000/svg" viewBox="0 0 11.52 16"><defs><style>.cls-1{fill:#f39323;}</style></defs><path class="cls-1" d="M10.6,0c.19.23.4.45.58.68.59.73,1.17,1.47,1.75,2.2.22.28.21.35,0,.61L11.84,4.68a.32.32,0,0,1-.51,0c-.13-.15-.26-.29-.38-.45s0-.09-.07-.14l-.07.05c0,.21,0,.42-.08.63a3.45,3.45,0,0,0,.07,1.5,7.75,7.75,0,0,0,.35.91c.8,1.94,1.61,3.88,2.26,5.87.11.34.22.69.32,1s0,.38-.26.43L12,14.81l-.24.06a1.37,1.37,0,0,0,0,.23.26.26,0,0,1-.22.35c-.87.17-1.75.33-2.63.48a8.35,8.35,0,0,1-2.82-.14l-1.64-.32c-.27-.05-.34-.16-.28-.42,0-.05,0-.11,0-.18l-.21,0-1.46-.29c-.31-.06-.37-.17-.28-.47a48.6,48.6,0,0,1,1.77-4.9c.36-.88.73-1.75,1.07-2.64A3,3,0,0,0,5.29,5c0-.28-.07-.56-.1-.87a.94.94,0,0,0-.14.12c-.14.15-.26.31-.4.46a.31.31,0,0,1-.48,0c-.36-.41-.73-.81-1.1-1.22-.21-.24-.21-.33,0-.58L5,.45c.13-.16.27-.3.4-.45ZM4.39,14.35l.22-.78C5,12,5.46,10.35,5.88,8.75L6.09,8a.26.26,0,0,1,.32-.2.24.24,0,0,1,.21.3c0,.11,0,.22-.08.33L4.83,14.82a1.55,1.55,0,0,1,0,.17,15.14,15.14,0,0,0,3.53.47A21.73,21.73,0,0,0,11.2,15c0-.11,0-.2-.07-.28q-.86-3.26-1.72-6.49a.78.78,0,0,1,0-.22.24.24,0,0,1,.24-.25c.14,0,.25.08.3.26.17.61.33,1.22.49,1.83l1.14,4.33.07.18L13.15,14c-.76-2.53-1.81-4.93-2.79-7.34H5.64c-1,2.42-2,4.81-2.79,7.34Zm5.73-9.18a.39.39,0,0,0,0-.13c.07-.54.12-1.08.2-1.61a.35.35,0,0,1,.18-.23.26.26,0,0,1,.31.09l.36.42c.12.15.25.28.38.44l.88-1-.34-.42L10.47.65a.56.56,0,0,0-.66,0,6.42,6.42,0,0,0-.42.6A.52.52,0,0,1,9,1.48a1,1,0,0,0-.71.41c-.17.24-.33.23-.53,0a.9.9,0,0,0-.45-.33A1,1,0,0,1,6.56,1l0-.06A.63.63,0,0,0,5.78.54a.38.38,0,0,0-.24.11l-1.61,2-.39.5.88,1c.25-.29.48-.55.7-.82a.31.31,0,0,1,.35-.13c.14,0,.18.14.19.26,0,.46.1.92.16,1.38,0,.11,0,.22,0,.33Zm0,.56H5.84l-.06.4h4.44ZM8.07,1.31A3.14,3.14,0,0,1,8.68,1C9,1,9,.72,9.18.52H6.92c.09.13.15.24.23.35a.32.32,0,0,0,.13.1Z" transform="translate(-2.24)"/></svg>