<svg id="Layer_1" data-name="Layer 1" xmlns="http://www.w3.org/2000/svg" viewBox="0 0 16 16"><defs><style>.cls-1{fill:#64328a;}</style></defs><path class="cls-1" d="M15.77,3.17,13,.67A2.7,2.7,0,0,0,11.65,0H4.35A2.7,2.7,0,0,0,3,.67L.23,3.17a.51.51,0,0,0-.1.77L1.59,6a.49.49,0,0,0,.78.12L3.3,5.4l.16-.1v.25q0,5,0,9.89c0,.39.17.56.56.56H7c.39,0,.56-.17.56-.56V11.5a.46.46,0,1,1,.92,0v3.94c0,.39.17.56.56.56h3c.39,0,.56-.17.56-.56q0-4.93,0-9.89V5.3l.16.1.93.71A.49.49,0,0,0,14.41,6l1.46-2.05A.51.51,0,0,0,15.77,3.17ZM6.49.94h3c.19,0,.21,0,.2.21a1.71,1.71,0,0,1-3.42,0C6.28,1,6.3,1,6.49.94Zm-.2,2.39c0-.05,0-.1,0-.18a2.67,2.67,0,0,0,3.4,0c0,.08,0,.13,0,.18V6.09c0,.21,0,.21-.22.22h-3c-.21,0-.22,0-.22-.22ZM4.16,3.9A.49.49,0,0,0,3.59,4L2.25,5c-.09.06-.14.08-.21,0L1.19,3.78c-.06-.08-.06-.13,0-.2l2.5-2.26a1.49,1.49,0,0,1,1-.38c.15,0,.3,0,.45,0s.18.05.18.19c0,1.77,0,3.54,0,5.31a.37.37,0,0,1-.1.24c-.22.24-.45.47-.68.69l-.13.12V7.27c0-1,0-1.9,0-2.86A.51.51,0,0,0,4.16,3.9Zm2.43,11c0,.13,0,.17-.17.17H4.59c-.13,0-.18,0-.17-.17v-.6c0-.11,0-.15.15-.15H6.44c.11,0,.15,0,.15.15S6.58,14.69,6.59,14.88Zm5,0c0,.13,0,.17-.17.17H9.58c-.13,0-.17,0-.17-.17s0-.4,0-.6,0-.15.15-.15h1.87c.11,0,.16,0,.15.15Zm-.18-1.7H9.6c-.15,0-.19-.06-.19-.21q0-.75,0-1.5a1.42,1.42,0,0,0-1.28-1.41H7.87a1.42,1.42,0,0,0-1.28,1.41q0,.75,0,1.5c0,.15,0,.21-.19.21H4.6c-.14,0-.19-.06-.19-.19,0-1.32,0-2.64,0-4a.37.37,0,0,1,.1-.24c.46-.48.92-.95,1.39-1.42a.46.46,0,0,1,.27-.11H9.82a.46.46,0,0,1,.27.11c.47.47.93.94,1.39,1.42a.37.37,0,0,1,.1.24c0,1.32,0,2.64,0,4C11.59,13.12,11.54,13.18,11.4,13.18Zm3.41-9.4L14,5c-.07.11-.12.09-.21,0L12.41,4a.49.49,0,0,0-.57-.09.51.51,0,0,0-.26.51c0,1,0,1.9,0,2.86v.22l-.13-.12c-.23-.22-.46-.45-.68-.69a.37.37,0,0,1-.1-.24c0-1.77,0-3.54,0-5.31,0-.14,0-.19.18-.19s.3,0,.45,0a1.49,1.49,0,0,1,1,.38l2.5,2.26C14.87,3.65,14.87,3.7,14.81,3.78Z" transform="translate(0)"/></svg>