<svg id="Layer_1" data-name="Layer 1" xmlns="http://www.w3.org/2000/svg" viewBox="0 0 16 14.72"><defs><style>.cls-1{fill:#05ab9e;}</style></defs><path class="cls-1" d="M15.29,10.36l-1.55-.62-.2-.08.12,0A5.79,5.79,0,0,0,15.25,9a.42.42,0,0,0,.22-.43,27.68,27.68,0,0,1-.25-3.63,3.18,3.18,0,0,0-.31-1.35,3.19,3.19,0,0,0-6,.66,8.51,8.51,0,0,0-.09,1.51c0,.27,0,.53,0,.81l-.5.25L6.78,6c0-.12.06-.23.08-.33s0-.21,0-.3l.06,0a.79.79,0,0,0,.28-1.25.4.4,0,0,1-.06-.22V2.6a1.39,1.39,0,0,0-.52-1.14.45.45,0,0,1-.1-.13,1,1,0,0,0-1-.69H3.69a4,4,0,0,0-.6,0A2.09,2.09,0,0,0,1.35,2.6c0,.43,0,.86,0,1.28a.58.58,0,0,1-.09.29.81.81,0,0,0-.12.71.79.79,0,0,0,.48.51s0,0,0,.06a.14.14,0,0,1,0,.06,2.66,2.66,0,0,0,.93,1.72s.1.09.1.13c0,.2,0,.39,0,.59L2.48,8c-.58.17-1.16.34-1.74.53a1,1,0,0,0-.74,1V12c0,.2,0,.39.24.44a1.93,1.93,0,0,1,0,.23c0,.78,0,1.56,0,2.34,0,.23.09.35.25.36s.25-.12.25-.36V12.65a1.49,1.49,0,0,1,0-.21h.8a1.65,1.65,0,0,1,0,.21V15c0,.06,0,.14,0,.19s.13.17.2.18.18-.07.24-.13.05-.14.05-.21c0-1.31,0-2.62,0-3.93A1.23,1.23,0,0,0,2,10.55a6.52,6.52,0,0,0-.42-.65.23.23,0,0,0-.33-.09.24.24,0,0,0-.09.35l.07.11a1.75,1.75,0,0,1,.42,1.48l0,.15H.51s0-.05,0-.07c0-.76,0-1.52,0-2.27A.56.56,0,0,1,.94,9l.6-.18h.14a2.67,2.67,0,0,0,1.5,1.76,2.62,2.62,0,0,0,2.27,0l.7.33a.51.51,0,0,0,0,.1A2.08,2.08,0,0,0,7,12.54c.21.15.25.26.16.53l-.81.27a1,1,0,0,0-.75,1c0,.24,0,.47,0,.71a.24.24,0,0,0,.23.27.25.25,0,0,0,.24-.27v-.6c0-.45.17-.65.64-.73a1.88,1.88,0,0,0,3.06,0c.47.08.64.28.64.74,0,.21,0,.41,0,.62a.24.24,0,0,0,.47.06.31.31,0,0,0,0-.13c0-.23,0-.47,0-.7a1.07,1.07,0,0,0-.78-1c-.22-.06-.43-.14-.64-.21L9.33,13v-.37a2.23,2.23,0,0,0,1-1.23,2.41,2.41,0,0,0,2.27.63A2.37,2.37,0,0,0,14.3,10.5l.77.31a.61.61,0,0,1,.46.66v.8a1,1,0,0,1,0,.16h-.8a2.87,2.87,0,0,0-.05-.31.23.23,0,0,0-.25-.2.24.24,0,0,0-.22.25.49.49,0,0,0,0,.12V15a.81.81,0,0,0,0,.16.24.24,0,0,0,.21.22.22.22,0,0,0,.25-.17.73.73,0,0,0,0-.25V13.17a1.5,1.5,0,0,1,0-.2h.53c0,.09,0,.15,0,.22v1.88c0,.18.1.29.24.29a.27.27,0,0,0,.26-.28V13.17a1,1,0,0,1,0-.18l.23-.16v-1.7A1.16,1.16,0,0,0,15.29,10.36ZM9.29,6c0-.35,0-.7,0-1.05a2.7,2.7,0,0,1,5.37-.37c0,.16,0,.32,0,.48A29.37,29.37,0,0,0,15,8.42a.76.76,0,0,0,0,.14,4.78,4.78,0,0,1-1.6.61.66.66,0,0,1,0-.13,1,1,0,0,1,0-.17c.2-.17.4-.32.58-.5a2.53,2.53,0,0,0,.73-1.66,2.72,2.72,0,0,0-.05-.7,1.22,1.22,0,0,0-.82-.92c-.43-.14-.88-.24-1.32-.34a3.47,3.47,0,0,1-1.35-.55.25.25,0,0,0-.42.16,1,1,0,0,1-.75.81l-.19.07a.22.22,0,0,0-.12.26.22.22,0,0,0,.22.19.64.64,0,0,0,.2,0,1.63,1.63,0,0,0,1-.79l0,0h0c.38.13.74.26,1.11.36s.65.15,1,.22c.81.18,1.13.53,1,1.49a2.15,2.15,0,0,1-3.2,1.5.61.61,0,0,1-.22-.23c-.18-.25-.34-.51-.5-.77a.8.8,0,0,1-.09-.26c0-.26,0-.53,0-.8S10,6,9.7,6.07l-.41.2Zm.32.69v.79l-.74-.37V7Zm-2.68,0L7.67,7v0l-.74.37ZM2.1,5.27c0-.22-.06-.29-.28-.34a.27.27,0,0,1-.25-.32c0-.16.11-.23.3-.24H2.3a.32.32,0,0,0,.34-.25l.18-.55,1-.07a7.15,7.15,0,0,0,2.05-.44L6,3a.25.25,0,0,0,.11-.33.24.24,0,0,0-.32-.11A7.06,7.06,0,0,1,3.36,3c-.21,0-.43,0-.65,0a.3.3,0,0,0-.31.23l-.2.57H1.86a.09.09,0,0,1,0-.06,11.82,11.82,0,0,1,0-1.33A1.56,1.56,0,0,1,3.43,1.15c.71,0,1.41,0,2.12,0a.55.55,0,0,1,.59.43.44.44,0,0,0,.17.23.89.89,0,0,1,.38.73V3.67a1.24,1.24,0,0,1,0,.18l-.25,0c-.16,0-.25.09-.26.22a.25.25,0,0,0,.23.27h.29a.26.26,0,0,1,.26.23.28.28,0,0,1-.19.32c-.33.11-.33.11-.34.46A2.16,2.16,0,0,1,2.1,5.27ZM6.21,7.54a2.85,2.85,0,0,0-.35.51V7.36s0-.08.07-.11L6.4,6.8A.81.81,0,0,1,6.21,7.54ZM5.07,8.86a1.09,1.09,0,0,1-1.9-.65c0-.18,0-.36,0-.59a2.7,2.7,0,0,0,2.16,0A1.56,1.56,0,0,1,5.07,8.86Zm.43.72a1.53,1.53,0,0,0-.21.46,2.15,2.15,0,0,1-1.93.07A2.07,2.07,0,0,1,2.18,8.62l.51-.15A1.63,1.63,0,0,0,4,9.7,1.59,1.59,0,0,0,5.62,9C5.62,9.2,5.67,9.39,5.5,9.58Zm3,4.46a1.28,1.28,0,0,1-1.24-.47.62.62,0,0,0,.49-.64H8.81a.59.59,0,0,0,.48.64A1.13,1.13,0,0,1,8.49,14Zm1.66-3.72a.22.22,0,0,0-.24.24,3.73,3.73,0,0,1,0,.47,1.61,1.61,0,0,1-2.69,1,1.76,1.76,0,0,1-.55-1.35c0-.31,0-.35-.35-.36l-.21,0a.27.27,0,0,1-.22-.3.28.28,0,0,1,.27-.26c.34,0,.69-.05,1-.1A7.21,7.21,0,0,0,9.6,9c.23-.12.3-.25.22-.41s-.22-.14-.44,0a6.68,6.68,0,0,1-2.19.61c-.31,0-.63.06-.94.09l-.14,0A2.19,2.19,0,0,1,6.46,8a.37.37,0,0,0,.45,0L8.1,7.43l.18-.08.78.39L9.62,8c.14.07.29.16.45,0a1.83,1.83,0,0,1,.33.84,3.82,3.82,0,0,1,0,.59.36.36,0,0,0,.14.32.3.3,0,0,1,.11.33.28.28,0,0,1-.28.19A2.11,2.11,0,0,1,10.15,10.32Zm2.24,1.29a1.85,1.85,0,0,1-1.92-.81.79.79,0,0,0,.67-.49.71.71,0,0,0-.09-.73c-.14-.19-.1-.39-.14-.63a2.66,2.66,0,0,0,1.92.11c0,.32,0,.65.22.85a7.55,7.55,0,0,0,.74.43A1.81,1.81,0,0,1,12.39,11.61Z" transform="translate(0 -0.64)"/><path class="cls-1" d="M12,7.85a.93.93,0,0,0,.69-.33.25.25,0,0,0,0-.36.24.24,0,0,0-.36,0,.44.44,0,0,1-.68,0,.25.25,0,0,0-.37,0,.29.29,0,0,0,0,.39A.93.93,0,0,0,12,7.85Z" transform="translate(0 -0.64)"/><path class="cls-1" d="M11,6.5c.17,0,.24-.12.24-.38V6c0-.17-.09-.27-.23-.28s-.24.09-.27.25v.11C10.69,6.37,10.78,6.5,11,6.5Z" transform="translate(0 -0.64)"/><path class="cls-1" d="M13.08,6.5c.14,0,.24-.09.26-.26a.41.41,0,0,0,0-.11h0s0-.1,0-.15a.25.25,0,0,0-.5,0v.22A.26.26,0,0,0,13.08,6.5Z" transform="translate(0 -0.64)"/><path class="cls-1" d="M4.92,6.22a.27.27,0,0,0,0-.4c-.11-.11-.26-.1-.4,0a.41.41,0,0,1-.63,0c-.14-.14-.29-.15-.4,0a.27.27,0,0,0,0,.39.89.89,0,0,0,.66.28A.91.91,0,0,0,4.92,6.22Z" transform="translate(0 -0.64)"/><path class="cls-1" d="M3.16,4.41a.23.23,0,0,0-.22.24,1.29,1.29,0,0,0,0,.28.21.21,0,0,0,.22.22A.22.22,0,0,0,3.42,5a1.13,1.13,0,0,0,0-.18,1.25,1.25,0,0,0,0-.19A.24.24,0,0,0,3.16,4.41Z" transform="translate(0 -0.64)"/><path class="cls-1" d="M5.36,5.15a.21.21,0,0,0,.2-.2.76.76,0,0,0,0-.15h0V4.66a.24.24,0,0,0-.48,0,1,1,0,0,0,0,.39A.2.2,0,0,0,5.36,5.15Z" transform="translate(0 -0.64)"/><path class="cls-1" d="M8.91,11.14a.26.26,0,0,0-.31.07.41.41,0,0,1-.66,0l-.05,0a.24.24,0,0,0-.33.35.86.86,0,0,0,.7.35.92.92,0,0,0,.69-.3A.26.26,0,0,0,8.91,11.14Z" transform="translate(0 -0.64)"/><path class="cls-1" d="M7.72,10.29A.25.25,0,0,0,7.48,10a.25.25,0,0,0-.25.25.27.27,0,0,0,.24.24A.28.28,0,0,0,7.72,10.29Z" transform="translate(0 -0.64)"/><path class="cls-1" d="M9.06,10a.24.24,0,0,0-.24.24.25.25,0,1,0,.49,0A.25.25,0,0,0,9.06,10Z" transform="translate(0 -0.64)"/></svg>