<svg id="Layer_1" data-name="Layer 1" xmlns="http://www.w3.org/2000/svg" viewBox="0 0 16 16"><defs><style>.cls-1{fill:#48ae4d;}</style></defs><path class="cls-1" d="M16,7.38h0c0-.16,0-.3,0-.45s0-.16,0-.23a3.1,3.1,0,0,0-.08-.42V6.21c0-.12-.06-.23-.09-.35a1.55,1.55,0,0,0-.07-.23.14.14,0,0,0,0-.06c0-.14-.09-.28-.14-.42A7.91,7.91,0,0,0,14.91,4c-.1-.18-.22-.36-.34-.54a6.32,6.32,0,0,0-.77-.94l-.05-.06c-.14-.14-.28-.28-.44-.42l-.5-.41-.54-.37-.15-.09L11.83,1,11.38.75a7.64,7.64,0,0,0-.94-.37L10,.24A9.88,9.88,0,0,0,8.84.05L8.47,0,8.41,0h-.7l-.4,0c-.18,0-.21.05-.21.23V1.88A.65.65,0,0,0,7,3.07c-.08.05-.15.12-.23.16l-.56.27-.31.15a1,1,0,0,0-.63.71H4.71a.2.2,0,0,0-.11.2v.55c0,.13.05.18.18.2H9v.35L8.66,6a1.2,1.2,0,0,0-.31.84V8.73H8V8.56C8,8,8,7.39,8,6.8a1.06,1.06,0,0,0-.25-.71,4.07,4.07,0,0,0-.42-.41.16.16,0,0,0-.21,0,1.57,1.57,0,0,0-.67.89,2.29,2.29,0,0,0,0,.25V8.61a.53.53,0,0,1,0,.12h-.3V6.8a1.07,1.07,0,0,0-.23-.7,5.29,5.29,0,0,0-.41-.41.17.17,0,0,0-.2-.05.19.19,0,0,0-.1.2v2.9H4.83c-.2,0-.23,0-.23.23v.49c0,.17.05.22.22.22h.41a1,1,0,0,0,.63.74l.55.25a1.77,1.77,0,0,1,.71.5.15.15,0,0,0,.27,0A1.58,1.58,0,0,1,8,10.71l.54-.25a2.27,2.27,0,0,0,.34-.19.82.82,0,0,0,.37-.52.13.13,0,0,1,0-.07h.38c.19,0,.24,0,.24-.24V9c0-.19,0-.23-.23-.23H9.29V5.31h.38c.19,0,.24,0,.24-.25v-.5a.21.21,0,0,0-.11-.19H9.29a.76.76,0,0,1,0-.11.92.92,0,0,0-.43-.52l-.62-.3-.51-.27a.61.61,0,0,1-.14-.1.67.67,0,0,0,.32-.64.65.65,0,0,0-.45-.54V.4A6.24,6.24,0,0,1,12.29,4a6.12,6.12,0,0,1,.57,3.08l.31,0A6.69,6.69,0,0,0,13,4.93,6.58,6.58,0,0,0,12.1,3a7,7,0,0,0-1.46-1.57,6.93,6.93,0,0,0-1.87-1l.51,0h0c.16,0,.33,0,.49.09l.36.09.32.11a2.19,2.19,0,0,1,.33.12l.26.11c.1,0,.19.08.29.12s.37.2.55.31l.27.17a2.4,2.4,0,0,1,.26.18l.27.19c.17.13.34.27.5.42l.23.23.19.19.18.21c.12.13.23.27.34.41a6,6,0,0,1,.41.62,3.3,3.3,0,0,1,.18.32,1.73,1.73,0,0,1,.17.33,3.75,3.75,0,0,1,.29.69c0,.1.07.2.1.29l.09.3c0,.16.09.33.13.5a7.54,7.54,0,0,1,.12.83,7.69,7.69,0,0,1-7.16,8.4A7.56,7.56,0,0,1,3.4,14.16a6.06,6.06,0,0,1-.56-.47c-.18-.17-.36-.35-.52-.53A3.68,3.68,0,0,1,2,12.79c-.13-.16-.25-.33-.37-.5a5,5,0,0,1-.38-.63h0A5,5,0,0,1,.92,11a6,6,0,0,1-.25-.71,2.47,2.47,0,0,1-.11-.36c0-.12-.05-.22-.07-.33a2.21,2.21,0,0,1,0-.25,1.26,1.26,0,0,1,0-.28c0-.11,0-.23,0-.34A6.58,6.58,0,0,0,3,12.09a6.39,6.39,0,0,0,4.12,1.09,6.53,6.53,0,0,0,5.47-3.75l-.26-.12c-.14.24-.27.48-.41.71a6.21,6.21,0,0,1-4.12,2.75A6,6,0,0,1,3.32,12,6.16,6.16,0,0,1,.66,8.6,7.14,7.14,0,0,1,.38,7.32a.2.2,0,0,0,0-.07s0,0,0,0h0a.17.17,0,0,0-.14-.09.15.15,0,0,0-.15.14,2.91,2.91,0,0,0,0,.31.36.36,0,0,1,0,.1.07.07,0,0,1,0,0V8.5l0,.06a.07.07,0,0,0,0,0,5.61,5.61,0,0,0,.06.59v0c0,.18.06.35.1.53,0,0,0,.05,0,.08s.07.27.11.4l.13.43c.06.14.11.28.16.41a7.82,7.82,0,0,0,.55,1.08c.06.11.13.21.2.32l.23.32.23.3a7,7,0,0,0,.52.57,10.15,10.15,0,0,0,.87.75l.64.43.35.2a.53.53,0,0,0,.15.08,6.71,6.71,0,0,0,2,.72l.39.07a8.13,8.13,0,0,0,3.6-.27,6.55,6.55,0,0,0,.74-.27,8.79,8.79,0,0,0,.87-.43,7,7,0,0,0,1.53-1.15c.23-.22.45-.46.66-.7a8.76,8.76,0,0,0,.87-1.31l.14-.25s0,0,0-.06a7.74,7.74,0,0,0,.37-.9,5.46,5.46,0,0,0,.26-1c0-.13,0-.26.07-.39L16,9a.62.62,0,0,0,0-.13A7.38,7.38,0,0,0,16,8C16,7.79,16,7.58,16,7.38Zm-7.31-.6A.88.88,0,0,1,9,6.13V8.74h-.3ZM6.78,6.72a.55.55,0,0,1,.06-.22A1.2,1.2,0,0,1,7.26,6a1.88,1.88,0,0,1,.27.3.75.75,0,0,1,.19.54V8.73H6.79s0,0,0,0Zm-1.24-.6a1,1,0,0,1,.31.64c0,.62,0,1.23,0,1.85v.12h-.3ZM8.69,10a2.37,2.37,0,0,1-.35.19,3.61,3.61,0,0,0-1.09.63,1.91,1.91,0,0,0-.56-.38c-.17-.09-.35-.16-.52-.24s-.25-.13-.37-.2a.45.45,0,0,1-.23-.32c.18,0,3.26,0,3.37,0A.5.5,0,0,1,8.69,10Zm.9-1v.3H4.92v-.3Zm0-4.37V5H4.92v-.3ZM8,3.71c.15.07.3.12.45.2a2.61,2.61,0,0,1,.3.2.37.37,0,0,1,.16.24c-.16,0-3.25,0-3.37,0A.54.54,0,0,1,5.85,4a4.93,4.93,0,0,1,.46-.23,2.86,2.86,0,0,0,.94-.57A2.41,2.41,0,0,0,8,3.71Zm-.47-1.2a.31.31,0,1,1-.3-.32A.31.31,0,0,1,7.56,2.51Z"/><path class="cls-1" d="M13.77,7.56l-.77,0L12.79,7a1.07,1.07,0,0,1-.07-.19.16.16,0,0,0-.16-.11.17.17,0,0,0-.15.11c-.06.17-.12.35-.19.51s-.05.16-.09.25c-.23,0-.46,0-.68,0h-.11a.18.18,0,0,0-.17.11.16.16,0,0,0,.07.19l.31.24c.1.09.2.16.32.25-.09.28-.16.55-.23.82s.12.22.28.12L12.41,9l.15-.1.37.24.28.19c.15.09.22.06.28-.11s-.15-.55-.22-.83l.31-.25.3-.23c.07-.06.11-.11.08-.2S13.86,7.56,13.77,7.56Zm-.85.67.14.58-.35-.23a.24.24,0,0,0-.3,0c-.1.08-.21.14-.34.23,0-.21.14-.39.12-.59s-.3-.22-.42-.36c.2-.05.41,0,.58-.07s.12-.33.23-.5c.05.14.1.26.14.38a.22.22,0,0,0,.23.17h.43Z"/><path class="cls-1" d="M3.33,3a.16.16,0,0,0-.17-.11l-.79,0v0c-.05-.11-.09-.22-.13-.33l-.08-.21a1.46,1.46,0,0,0-.07-.19.15.15,0,0,0-.15-.11.15.15,0,0,0-.15.11l-.22.61-.07.15-.73,0c-.09,0-.19,0-.23.11s0,.17.13.23l.57.46a1,1,0,0,0-.05.16L1,4.47c0,.07.06.13.1.14s.1,0,.18,0l.48-.32a1.2,1.2,0,0,0,.17-.11c.24.17.49.33.73.48.18,0,.22-.08.18-.23S2.73,4,2.68,3.75a.42.42,0,0,1,0-.12c.11-.1.24-.19.36-.29l.25-.2C3.33,3.09,3.37,3,3.33,3Zm-1,.55a3.06,3.06,0,0,0,.11.59l-.34-.22a.22.22,0,0,0-.31,0l-.33.22a.51.51,0,0,1,0-.13h0a1.31,1.31,0,0,0,.09-.47L1.45,3.4l-.31-.24a.08.08,0,0,0,0,0h.41a.23.23,0,0,0,.12,0A.24.24,0,0,0,1.79,3h0a1.83,1.83,0,0,1,.1-.28A.41.41,0,0,1,2,2.57.58.58,0,0,0,2,2.71a1.23,1.23,0,0,0,.09.23,1,1,0,0,0,0,.1c0,.07.08.08.21.08l.41,0Z"/></svg>