<svg id="Layer_1" data-name="Layer 1" xmlns="http://www.w3.org/2000/svg" viewBox="0 0 16 16"><defs><style>.cls-1{fill:#2dabe3;}</style></defs><path class="cls-1" d="M0,14.63c.1-.32.21-.64.31-1S.44,13.25.5,13c.25-.8.51-1.6.76-2.4s.41-1.31.61-2c.1-.31.2-.62.29-.93a.24.24,0,0,0,0-.08.81.81,0,0,1,.07-1.41L2,5.31c-.14-.58-.29-1.17-.42-1.76a2,2,0,0,1,0-1.07,1.3,1.3,0,0,1,.82-.86l.13-.05V0a2.26,2.26,0,0,1,.52,0,4.35,4.35,0,0,1,0,.51v1a1.41,1.41,0,0,1,1,.81,1.46,1.46,0,0,1,1-.81V0h.53c0,.53,0,1,0,1.56L6,1.71a1.28,1.28,0,0,1,.72,1.16,5.05,5.05,0,0,1-.2,1.34L6,6.11s0,.08,0,.14a.79.79,0,0,1,.06,1.4l.12.41.75,2.4c.21.66.42,1.32.62,2l.63,2A1.28,1.28,0,0,1,8,15.67a.91.91,0,0,1-.34.27L7.53,16H7.15a1,1,0,0,1-.41-.26.67.67,0,0,0-.2-.12.68.68,0,0,0-.17.09,1.55,1.55,0,0,1-.43.29H5.53a1.6,1.6,0,0,1-.44-.29.68.68,0,0,0-.17-.09,1,1,0,0,0-.18.1,1.11,1.11,0,0,1-.43.28H3.94a1.3,1.3,0,0,1-.44-.29.76.76,0,0,0-.18-.09.68.68,0,0,0-.17.09,1.26,1.26,0,0,1-.43.29H2.34c-.24-.06-.37-.29-.61-.38a1.4,1.4,0,0,0-.17.09,1.6,1.6,0,0,1-.44.29H.72L.65,16a.93.93,0,0,1-.37-.28A1.79,1.79,0,0,1,0,15.13ZM4.12,3.38a.36.36,0,0,1-.28-.26c-.06-.17-.13-.34-.2-.52a.81.81,0,0,0-1.54.09,1.54,1.54,0,0,0,0,.37,3.33,3.33,0,0,0,.07.54c.2.82.41,1.63.61,2.45a1.12,1.12,0,0,0,0,.13H5.46s0-.09,0-.13c.19-.76.39-1.53.57-2.3a3.12,3.12,0,0,0,.11-.86.79.79,0,0,0-.92-.79.73.73,0,0,0-.64.5c-.07.18-.15.36-.22.55A.34.34,0,0,1,4.12,3.38Zm-.26,11.9V7.77H3.57l-1.48,7.4.27.24a.26.26,0,0,0,.34,0l.08-.08a.74.74,0,0,1,.76-.19A1.54,1.54,0,0,1,3.86,15.28Zm.56-7.52c0,.26,0,7.39,0,7.49.56-.24.63-.23,1.22.21h.17l.34-.29c-.16-.82-.32-1.64-.49-2.47s-.32-1.65-.49-2.47-.32-1.65-.5-2.47ZM6.7,15.11a1.2,1.2,0,0,1,.45.27.25.25,0,0,0,.41,0,.82.82,0,0,0,.11-.77c-.06-.2-.13-.4-.19-.61-.15-.45-.29-.91-.44-1.37-.29-.92-.57-1.85-.86-2.78l-.6-1.92a.61.61,0,0,1,0-.12h-.3Zm-5.14,0L3,7.77H2.73A1.34,1.34,0,0,0,2.66,8L2.3,9.13l-1,3.15-.57,1.8-.18.61a.68.68,0,0,0,.28.77H1v0Zm.8-8.2c0,.25.05.35.3.35H5.6c.2,0,.27-.06.32-.25s-.12-.25-.3-.25h-3A.28.28,0,0,0,2.36,6.87Z" transform="translate(0 0)"/><path class="cls-1" d="M9.68,16a.53.53,0,0,1-.16-.43q0-3.45,0-6.89V8.57a.29.29,0,0,1,.32-.32h3.57a.28.28,0,0,1,.26.27.4.4,0,0,1,0,.11q0,3.51,0,7a.36.36,0,0,1-.16.35H12.28a.38.38,0,0,1-.18-.28c0-.1,0-.21,0-.31l-.18-1.12c-.06-.36-.11-.73-.17-1.09,0-.19-.06-.38-.1-.56a2,2,0,0,0,0,.24c-.08.49-.15,1-.23,1.46l-.21,1.34a.39.39,0,0,1-.19.32Zm3.46-.54V8.81c-.16,0-2.94,0-3.06,0s0,6.53,0,6.65h.52c.06-.38.11-.74.17-1.1l.18-1.1c0-.34.1-.67.16-1s.14-.93.22-1.4c0-.21.08-.26.3-.29a.31.31,0,0,1,.24.27c0,.15,0,.3.07.45.06.34.12.69.17,1s.13.87.2,1.31l.21,1.3c0,.17.05.34.08.52Z" transform="translate(0 0)"/><path class="cls-1" d="M10.06,1.11V.86c0-.2,0-.39,0-.58A.25.25,0,0,1,10.33,0H13a.38.38,0,0,1,.2.38V1c0,.05,0,.11,0,.17l.69.3.91.38a.35.35,0,0,1,.19.25c.06.26.13.51.19.76C15.44,3.89,15.7,5,16,6c0,.08,0,.17,0,.23a.35.35,0,0,1-.36.2H14.53a.32.32,0,0,1-.36-.26c-.09-.3-.18-.61-.28-.92,0,0,0-.06,0-.12,0,.12,0,.21,0,.3l0,.67-.06.72c0,.19,0,.38,0,.57s-.11.32-.33.32H9.85c-.21,0-.31-.11-.33-.32,0-.43-.06-.85-.08-1.28,0-.23,0-.47,0-.71a.63.63,0,0,0-.05-.22c-.06.17-.11.34-.16.51L9,6.23a.29.29,0,0,1-.33.24H7.54a.28.28,0,0,1-.3-.39c.15-.64.31-1.28.47-1.92s.36-1.39.52-2.09a.39.39,0,0,1,.23-.27l1.06-.46Zm1.82,6.1h1.26l0-.12,0-.56c0-.23,0-.47,0-.7l0-.5.06-.71c0-.22,0-.45,0-.67a4.46,4.46,0,0,1,.07-.51c.08-.32.18-.65.28-1,0-.15.08-.31.13-.48l-.78-.33,0,.07c-.21.58-.41,1.15-.62,1.72-.13.38-.27.75-.4,1.13a1.55,1.55,0,0,0-.14.51v2C11.87,7.11,11.88,7.15,11.88,7.21ZM9.37,2a.87.87,0,0,0,0,.1l.21.73a6.21,6.21,0,0,1,.2.74,7.9,7.9,0,0,1,.07.85c0,.23,0,.45,0,.68l0,.5.06.73L10,7a2,2,0,0,0,.05.24h1.25c0-.06,0-.11,0-.16v-2a.93.93,0,0,0,0-.24l-.24-.66-.72-2-.18-.49Zm-.8,3.94.69-2.31L8.87,2.23a.17.17,0,0,0-.16.15c-.28,1.14-.56,2.28-.85,3.42a.53.53,0,0,0,0,.13Zm5.79-3.7s0,0,0,.08c-.11.38-.22.77-.34,1.15a.59.59,0,0,0,0,.35l.57,1.9c0,.07.05.14.08.22h.72l0-.16C15.17,5,15,4.3,14.8,3.56l-.3-1.19C14.48,2.3,14.46,2.24,14.36,2.23ZM11.61,4.11l.9-2.54H10.75a0,0,0,0,0,0,0l0,0ZM10.6,1h2V.56a16.78,16.78,0,0,0-2,0Z" transform="translate(0 0)"/></svg>