<svg id="Layer_1" data-name="Layer 1" xmlns="http://www.w3.org/2000/svg" viewBox="0 0 16 16"><defs><style>.cls-1{fill:#85c48e;}</style></defs><path class="cls-1" d="M15.93,6.57l0-.16h0L15.21,4c0-.06,0-.12-.07-.19a.22.22,0,0,0-.28-.11.21.21,0,0,0-.16.22.79.79,0,0,0,0,.2l.63,2.27a.58.58,0,0,1,0,.14l-2,.67c0-.09,0-.14,0-.2,0-.21,0-.43,0-.65a.23.23,0,0,0-.23-.24.25.25,0,0,0-.24.23v7.88c0,.07,0,.14,0,.22H5.17a.26.26,0,0,0-.27.24c0,.13.11.24.28.25h7.68a.47.47,0,0,1-.42.58H3.59a.43.43,0,0,1-.38-.58h.68a.64.64,0,0,0,.2,0,.23.23,0,0,0,.18-.21.24.24,0,0,0-.18-.23.44.44,0,0,0-.16,0H3.17V6.49a1,1,0,0,0,0-.17.37.37,0,0,0-.1-.17.21.21,0,0,0-.24,0,.22.22,0,0,0-.13.22c0,.22,0,.44,0,.66,0,0,0,.11,0,.18l-2-.68c0-.07,0-.12,0-.18.08-.3.17-.6.26-.9.24-.87.49-1.74.74-2.61A1.48,1.48,0,0,1,2.75,1.76l1.36-.41.54-.16a.46.46,0,0,0,0,.1l.06.12A5.13,5.13,0,0,0,5.94,2.73a8.94,8.94,0,0,0,1.63,1,1,1,0,0,0,.93,0c.31-.16.62-.31.92-.49a5.06,5.06,0,0,0,1.82-1.71l.17-.28.12,0,1.82.55a1.47,1.47,0,0,1,1,1c0,.07,0,.13.07.19a.22.22,0,0,0,.23.12.24.24,0,0,0,.2-.15.34.34,0,0,0,0-.2,5.06,5.06,0,0,0-.25-.58,2.05,2.05,0,0,0-1.28-.91L11.42.69A.37.37,0,0,1,11.26.6.9.9,0,0,0,10.7.31c-.49-.09-1-.18-1.49-.25C9.06,0,8.9,0,8.75,0H7.31L7.2,0c-.3,0-.61.05-.9.09S5.54.27,5.17.36a.81.81,0,0,0-.31.18.6.6,0,0,1-.3.17l-1.91.57A2,2,0,0,0,1.19,2.79C1,3.49.79,4.2.59,4.9S.23,6.19,0,6.83a1,1,0,0,0,.1.81,1.09,1.09,0,0,0,.65.52l1.73.58.17.06V9c0,.44,0,.88,0,1.32,0,1.58,0,3.16,0,4.73a1,1,0,0,0,.13.5.94.94,0,0,0,.84.46h8.75a.9.9,0,0,0,.49-.13,1,1,0,0,0,.46-.83V8.8l.24-.09,1.66-.55a1.09,1.09,0,0,0,.63-.47h0A1.89,1.89,0,0,0,15.93,6.57ZM10.13.68A1.16,1.16,0,0,0,10,.84,5,5,0,0,1,8.67,2l-.51.28a.26.26,0,0,1-.27,0,7,7,0,0,1-1.49-1A3.05,3.05,0,0,1,5.93.68,11,11,0,0,1,10.13.68ZM5.42.8c.09.13.18.27.28.39a4.24,4.24,0,0,0,1.06,1c.29.2.6.38.9.56a.72.72,0,0,0,.71,0,6.47,6.47,0,0,0,1.84-1.36c.15-.18.28-.37.42-.56.28,0,.34.22.22.4A4.68,4.68,0,0,1,9.67,2.46a7.83,7.83,0,0,1-1.44.81.49.49,0,0,1-.41,0,7,7,0,0,1-1.72-1,4.52,4.52,0,0,1-.89-1h0C5.07,1,5.15.83,5.42.8ZM2.68,8.26l-.1,0L.89,7.68a.57.57,0,0,1-.4-.48A1.75,1.75,0,0,1,.49,7l2.19.74Zm12.48-.58-1.25.42-.54.18V7.71L15.53,7a.68.68,0,0,1,0,.17A.57.57,0,0,1,15.16,7.68Z" transform="translate(0)"/><path class="cls-1" d="M10.57,8.66v-1a1,1,0,0,0-.14-.52,1.32,1.32,0,0,0-2.5.59V9.51a1.33,1.33,0,0,0,2.65,0C10.57,9.26,10.57,9,10.57,8.66Zm-.48,0v.86a.82.82,0,0,1-.52.77.85.85,0,0,1-.94-.22.8.8,0,0,1-.22-.57c0-.56,0-1.13,0-1.7a.84.84,0,0,1,1.68-.06C10.1,8.05,10.09,8.35,10.09,8.66Z" transform="translate(0)"/><path class="cls-1" d="M6.77,6.84v3.49a1.64,1.64,0,0,1,0,.23.22.22,0,0,1-.23.19.21.21,0,0,1-.23-.17.65.65,0,0,1,0-.2V7H5.84a.52.52,0,0,1-.18,0,.23.23,0,0,1-.18-.23.21.21,0,0,1,.18-.23l.13,0h.64C6.66,6.53,6.74,6.62,6.77,6.84Z" transform="translate(0)"/></svg>