<svg id="Layer_1" data-name="Layer 1" xmlns="http://www.w3.org/2000/svg" viewBox="0 0 16 16"><defs><style>.cls-1{fill:#d2ac0b;}</style></defs><path class="cls-1" d="M16,13.91a.39.39,0,0,1-.28.16l-.45.1-.11,0a.26.26,0,0,1-.28-.19.25.25,0,0,1,.18-.28,2,2,0,0,1,.26-.06l.15-.05-.11-.5-3.29.72.12.52.68-.15.94-.2c.19,0,.32,0,.34.17s-.07.26-.24.3l-1.14.25-.64.14c-.23.05-.33,0-.38-.24-.14-.61-.27-1.21-.4-1.82a.46.46,0,0,0-.32-.39.41.41,0,0,0-.55.39,3.64,3.64,0,0,0,.11.66l.3,1.37a.27.27,0,0,1-.22.36l-3.29.72L7.06,16c-.27.06-.36,0-.42-.27s-.18-.79-.26-1.19C6,13,5.69,11.4,5.34,9.84c-.07-.35-.15-.69-.23-1s0-.36.27-.42l4.4-1,3-.66,1.31-.29c.24,0,.35,0,.4.25.26,1.17.51,2.33.77,3.5.19.84.37,1.68.56,2.52l.18.81M5.84,9.83l1,4.65,3.28-.72c0-.17-.07-.32-.1-.46a2.89,2.89,0,0,1-.07-.49,1.26,1.26,0,0,1,.06-.38l-.19-.06a.24.24,0,0,1-.19-.31A.25.25,0,0,1,10,11.9a.47.47,0,0,1,.35.21,1,1,0,0,1,.83-.19c0-.18.11-.26.23-.35a.25.25,0,0,1,.34,0,.23.23,0,0,1,0,.34l-.18.17a1.22,1.22,0,0,1,.31.58c0,.21.1.43.15.67l3.28-.73L14.23,8c-.77.16-1.52.32-2.26.5v.17a.24.24,0,0,1-.18.26.24.24,0,0,1-.28-.17l-.06-.16L8.6,9.22c0,.07,0,.11,0,.16a.25.25,0,0,1-.19.28.24.24,0,0,1-.28-.16L8.1,9.33ZM14,7l-1,.23-4.53,1L5.81,8.8l-.18.06c0,.13,0,.24.07.35a1.21,1.21,0,0,0,0,.14L14.12,7.5ZM7.09,15.48l3.28-.73-.12-.51L7,15Z" transform="translate(0 0)"/><path class="cls-1" d="M2,0c.13.07.27.12.4.2a1,1,0,0,1,.4.52l0,.11a1.13,1.13,0,0,1,1,0,1.18,1.18,0,0,1,.63.73,1.28,1.28,0,0,1,1,0A1.17,1.17,0,0,1,6,2.31,1.16,1.16,0,0,1,7.57,3L7.87,3A1.1,1.1,0,0,1,9.13,4.29a3,3,0,0,1-.23.59,8,8,0,0,1-.41.83A3.54,3.54,0,0,1,7.26,6.88a7.73,7.73,0,0,1-3,1.1A4.43,4.43,0,0,1,2.92,8a2.22,2.22,0,0,1-1-.46A4.65,4.65,0,0,1,.57,5.68,6.56,6.56,0,0,1,.09,4.06a5,5,0,0,1,0-1.81A3.2,3.2,0,0,1,.25,1.7C.41,1.33.59,1,.76.61A1.06,1.06,0,0,1,1.44.07l.07,0ZM.8,1.67s0,.05.06.06a3.3,3.3,0,0,1,.61.68.54.54,0,0,1,.07.13.22.22,0,0,1-.12.27.22.22,0,0,1-.29-.05A1.67,1.67,0,0,1,1,2.6C.89,2.46.76,2.32.64,2.17l-.05.05c0,.06,0,.12,0,.19a3.84,3.84,0,0,0,0,1.22A6.61,6.61,0,0,0,.93,5.26a4.91,4.91,0,0,0,.78,1.37L2,6.89H2c0-.21.08-.43.09-.64a5.73,5.73,0,0,0-.39-2.35.42.42,0,0,1,0-.15.22.22,0,0,1,.17-.27.24.24,0,0,1,.29.15A6.43,6.43,0,0,1,2.6,5.83a3.83,3.83,0,0,1-.16,1.26c0,.09,0,.17.06.22l.42.2A5.81,5.81,0,0,1,8.26,5.1l.23-.5L1,1.16ZM8,5.62l-.1,0A3,3,0,0,0,7,5.6a5.11,5.11,0,0,0-1.28.32A5,5,0,0,0,3.82,7.17c-.1.11-.19.23-.31.38h.24c.27,0,.54-.07.81-.12a7.11,7.11,0,0,0,1.69-.55A5.4,5.4,0,0,0,7.66,6,3.7,3.7,0,0,0,8,5.62ZM6,2.92c.35.17.69.34,1.05.48a.58.58,0,0,0-.32-.63A.59.59,0,0,0,6,2.92ZM1.3.74l1,.48A.53.53,0,0,0,2,.58.53.53,0,0,0,1.3.74Zm1.58.7a5.05,5.05,0,0,0,1.05.49.61.61,0,0,0-1.05-.49ZM8.63,4.13a.55.55,0,0,0-.31-.64.59.59,0,0,0-.72.16ZM5.48,2.67A.57.57,0,0,0,5.15,2a.55.55,0,0,0-.69.17Z" transform="translate(0 0)"/><path class="cls-1" d="M2.75,12.49l.18-.39c0-.1.1-.2.16-.3a.24.24,0,0,1,.43,0c.09.17.17.34.26.5a1.72,1.72,0,0,1,.09.19l.41.06.32,0a.28.28,0,0,1,.26.18.27.27,0,0,1-.1.28l-.51.5.09.54a1.29,1.29,0,0,0,0,.19.28.28,0,0,1-.09.3.27.27,0,0,1-.3,0l-.65-.33L3,14.41l-.35.18a.24.24,0,0,1-.36-.25c0-.23.07-.46.1-.69a.1.1,0,0,0,0,0L2,13.2s-.11-.09-.16-.15A.24.24,0,0,1,2,12.62c.16,0,.32,0,.48-.08Zm.1,1.44.27-.14a.38.38,0,0,1,.43,0l.26.13a2,2,0,0,0-.06-.33.3.3,0,0,1,.11-.33L4.1,13l-.21,0a.46.46,0,0,1-.47-.32,1.48,1.48,0,0,0-.11-.22,3,3,0,0,0-.13.28.36.36,0,0,1-.33.26l-.31,0,.26.25a.3.3,0,0,1,.1.31A2.75,2.75,0,0,0,2.85,13.93Z" transform="translate(0 0)"/><path class="cls-1" d="M9.61,1c0-.14,0-.29,0-.43s0-.23,0-.34A.24.24,0,0,1,10.1.07a5,5,0,0,1,.41.38l.16.14.4-.08.32-.07a.25.25,0,0,1,.29.08.24.24,0,0,1,0,.29l-.31.65.26.47.11.17a.27.27,0,0,1,0,.31.26.26,0,0,1-.27.1l-.73-.09c-.08.1-.17.19-.26.29L10.24,3a.24.24,0,0,1-.43-.11c-.06-.23-.09-.46-.14-.69,0,0,0,0,0,0l-.5-.26L9,1.82a.24.24,0,0,1,0-.45c.13-.09.28-.16.42-.24ZM10.2,2.3l.21-.22a.35.35,0,0,1,.39-.14l.3,0a3.22,3.22,0,0,0-.17-.29.29.29,0,0,1,0-.35c.05-.09.08-.19.14-.32l-.21.05a.44.44,0,0,1-.54-.14,1.72,1.72,0,0,0-.19-.17c0,.13,0,.22,0,.3a.36.36,0,0,1-.23.36l-.27.15.33.15a.31.31,0,0,1,.2.25A2.58,2.58,0,0,0,10.2,2.3Z" transform="translate(0 0)"/><path class="cls-1" d="M1,11,.5,11a.25.25,0,0,1-.26-.4c.1-.14.19-.29.29-.45L.37,9.77.31,9.63A.24.24,0,0,1,.6,9.31,3.39,3.39,0,0,1,1,9.42l.12,0a3.11,3.11,0,0,1,.28-.23l.13-.11A.24.24,0,0,1,1.84,9,.26.26,0,0,1,2,9.3c0,.16,0,.33,0,.51l.37.24.12.07a.24.24,0,0,1,0,.42l-.34.13-.19.08-.09.39,0,.12a.26.26,0,0,1-.19.21.24.24,0,0,1-.27-.11l-.2-.24Zm-.06-.5a.8.8,0,0,1,.27,0,.87.87,0,0,1,.22.18,1.12,1.12,0,0,1,.11-.25,1.17,1.17,0,0,1,.26-.18c-.24-.06-.26-.25-.3-.46A.44.44,0,0,1,1,9.92,1.11,1.11,0,0,1,1,10.2,1.39,1.39,0,0,1,.94,10.46Z" transform="translate(0 0)"/><path class="cls-1" d="M13.86,3.78l-.28,0h-.31a.24.24,0,0,1-.2-.36c.06-.11.13-.21.2-.32s.07-.1.1-.16-.09-.24-.14-.36a.86.86,0,0,1-.07-.21.22.22,0,0,1,.25-.28l.3.06.29.07.4-.34c.2-.15.38-.08.42.16s0,.24,0,.36a1.28,1.28,0,0,0,0,.19c.16.09.31.19.46.29a.23.23,0,0,1,.07.38.41.41,0,0,1-.13.08l-.47.19-.09.32a2,2,0,0,1-.06.23.23.23,0,0,1-.41.09c-.09-.09-.17-.2-.26-.3Zm.52-1.17c-.11.07-.18.14-.27.15a.78.78,0,0,1-.3,0,.39.39,0,0,1,0,.51,1.72,1.72,0,0,1,.29.05,1.18,1.18,0,0,1,.21.18.79.79,0,0,1,.12-.26.76.76,0,0,1,.25-.15A.41.41,0,0,1,14.38,2.61Z" transform="translate(0 0)"/><path class="cls-1" d="M10.73,5.27l-.36-.35a.26.26,0,0,1-.1-.28.27.27,0,0,1,.25-.18l.39-.06.12,0c.07-.15.15-.29.21-.44a.24.24,0,0,1,.25-.17.25.25,0,0,1,.24.16c.07.15.15.3.23.45a4.13,4.13,0,0,0,.49.07c.12,0,.22.05.26.17a.27.27,0,0,1-.09.3l-.36.34c0,.18.06.36.1.53a.22.22,0,0,1-.09.27.24.24,0,0,1-.29,0l-.46-.23-.5.26a.24.24,0,0,1-.28,0,.33.33,0,0,1-.08-.3c0-.14.05-.29.07-.43Zm.77-.72a.46.46,0,0,1-.45.33.94.94,0,0,1,.18.24,1.22,1.22,0,0,1,0,.27,1.3,1.3,0,0,1,.27-.08,1.64,1.64,0,0,1,.28.07,1.31,1.31,0,0,1,0-.28,1.27,1.27,0,0,1,.16-.25A.4.4,0,0,1,11.5,4.55Z" transform="translate(0 0)"/><path class="cls-1" d="M8.35,10.36c0-.21.05-.3.19-.33a.24.24,0,0,1,.27.2,1.59,1.59,0,0,1,.07.38.23.23,0,0,1-.19.24.25.25,0,0,1-.27-.17C8.39,10.56,8.36,10.43,8.35,10.36Z" transform="translate(0 0)"/><path class="cls-1" d="M9,11.17l.14.09.22.27a.24.24,0,0,1,0,.33.25.25,0,0,1-.35,0,2,2,0,0,1-.25-.34C8.64,11.36,8.78,11.17,9,11.17Z" transform="translate(0 0)"/><path class="cls-1" d="M11.93,9.29a.22.22,0,0,1,.22.16,2.62,2.62,0,0,1,.09.38.25.25,0,0,1-.17.26.22.22,0,0,1-.28-.12,2.26,2.26,0,0,1-.1-.45A.22.22,0,0,1,11.93,9.29Z" transform="translate(0 0)"/><path class="cls-1" d="M12.32,10.82a2.78,2.78,0,0,1-.09.3.24.24,0,0,1-.29.16.26.26,0,0,1-.16-.33,2.27,2.27,0,0,0,.06-.25c0-.16.13-.23.27-.22S12.32,10.59,12.32,10.82Z" transform="translate(0 0)"/></svg>