<svg id="Layer_1" data-name="Layer 1" xmlns="http://www.w3.org/2000/svg" viewBox="0 0 16 13.44"><defs><style>.cls-1{fill:#f9de85;}</style></defs><path class="cls-1" d="M11.31,9.05,11,8.76A4.92,4.92,0,0,1,9.91,7.54,8.62,8.62,0,0,1,8.89,5c-.19-.72-.33-1.45-.49-2.17a.44.44,0,0,1,0-.1,2.39,2.39,0,0,0-.76,0l-.15.74a16.86,16.86,0,0,1-.68,2.6,6.86,6.86,0,0,1-1.06,2,5,5,0,0,1-1,.93l-.07.07,0,.12a6.2,6.2,0,0,1,.4,1.52c.07.47.13.93.19,1.39,0,.27.05.55.07.83s.07.67.09,1c0,.16,0,.33,0,.49a.26.26,0,0,1-.12.23.21.21,0,0,1-.24,0,1.4,1.4,0,0,0-1.42-.2c-.35.09-.69.2-1,.26a2.42,2.42,0,0,1-1.16-.09.23.23,0,0,1-.15-.2,1.34,1.34,0,0,1,0-.2V2.73a.22.22,0,0,0-.27,0,.65.65,0,0,1-1-.1A.87.87,0,0,1,0,2.34c0-.14,0-.27,0-.4a.6.6,0,0,1,.38-.6.63.63,0,0,1,.67.08.43.43,0,0,0,.3.11H14.83a.71.71,0,0,1,.59-.24.63.63,0,0,1,.58.58v.4a.61.61,0,0,1-.36.59.64.64,0,0,1-.7-.08c-.12-.09-.12-.1-.29-.06,0,.08,0,.16,0,.24V14.19c0,.36,0,.37-.36.46a2.48,2.48,0,0,1-1.21,0c-.37-.08-.74-.2-1.11-.28a1.17,1.17,0,0,0-1,.2l-.08.06a.26.26,0,0,1-.27,0,.25.25,0,0,1-.09-.24q0-.72.12-1.44c.05-.56.1-1.12.18-1.68a8.31,8.31,0,0,1,.5-2.15A.17.17,0,0,0,11.31,9.05Zm2.88-6.33c-.22,0-5.22,0-5.34,0a.48.48,0,0,0,0,.12,20.4,20.4,0,0,0,.74,3,7.13,7.13,0,0,0,.6,1.32,4.7,4.7,0,0,0,1.32,1.49.52.52,0,0,0,.5.12h.14a3.73,3.73,0,0,0,1.54-.32,4.14,4.14,0,0,0,.5-.3ZM1.81,8.12l.07.06a2.82,2.82,0,0,0,1.47.55l.77.06a.51.51,0,0,0,.25-.06A3.76,3.76,0,0,0,5.24,8,5.9,5.9,0,0,0,6,6.89a9,9,0,0,0,.61-1.51,24.79,24.79,0,0,0,.59-2.55.34.34,0,0,0,0-.1c-.18,0-5.22,0-5.35,0ZM13.61,9v3.15a.71.71,0,0,1,0,.21.22.22,0,0,1-.24.17.21.21,0,0,1-.17-.23.57.57,0,0,1,0-.13V9.09l-.67.1,0,.17c0,.39-.09.79-.14,1.19,0,.16-.1.25-.24.24a.22.22,0,0,1-.18-.28c0-.23.05-.47.08-.71l.06-.58h-.31a2,2,0,0,0-.23.57c-.08.34-.16.68-.22,1s-.12.92-.18,1.38c0,.27,0,.53-.08.79s-.06.62-.08.93a.44.44,0,0,0,0,.1l.08,0a1.44,1.44,0,0,1,.54-.1,3.07,3.07,0,0,1,.85.13,4.08,4.08,0,0,0,1.19.25,1,1,0,0,0,.54-.07c.05-.23,0-5.4,0-5.52ZM2.84,9.09c0,.05,0,.09,0,.13v3c0,.17-.06.26-.21.26s-.21-.11-.22-.26a.57.57,0,0,1,0-.13V9.17a1.48,1.48,0,0,0,0-.21l-.57-.28v5.54c.06,0,.11,0,.15,0a2.29,2.29,0,0,0,.74,0c.29-.06.57-.14.85-.22A2.19,2.19,0,0,1,5,14l0,0a3,3,0,0,1,0-.31c0-.33,0-.66-.08-1s-.1-.88-.16-1.32a9.86,9.86,0,0,0-.31-1.62,1.86,1.86,0,0,0-.22-.55H3.94c0,.21,0,.4.06.59s.07.47.09.71,0,.28-.2.28-.21-.08-.23-.24c0-.31-.07-.62-.11-.93,0-.14,0-.29-.06-.43ZM1.32,2.24c.25,0,13.24,0,13.36,0V2c-.24,0-13.24,0-13.36,0ZM.86,2.1h0V1.93a.22.22,0,0,0-.18-.21.22.22,0,0,0-.24.13.65.65,0,0,0,0,.51.19.19,0,0,0,.22.13A.2.2,0,0,0,.86,2.3,1.34,1.34,0,0,0,.86,2.1Zm14.28,0h0a1.47,1.47,0,0,0,0,.21.21.21,0,0,0,.18.18.18.18,0,0,0,.22-.1.61.61,0,0,0,0-.56.22.22,0,0,0-.24-.11.21.21,0,0,0-.16.21A1,1,0,0,0,15.14,2.1Z" transform="translate(0 -1.28)"/><path class="cls-1" d="M12.51,7.93c0,.07-.1.14-.15.18a.17.17,0,0,1-.23,0c-.23-.26-.47-.5-.68-.77a8.8,8.8,0,0,1-1.1-1.74,9.33,9.33,0,0,1-.64-1.91.21.21,0,1,1,.41-.1c.06.2.11.41.16.61a8.17,8.17,0,0,0,1.24,2.53,9.19,9.19,0,0,0,.85,1C12.42,7.76,12.51,7.86,12.51,7.93Z" transform="translate(0 -1.28)"/><path class="cls-1" d="M13.45,7.86a.21.21,0,0,1-.18-.21,1.52,1.52,0,0,1,0-.21c0-1.24,0-2.48,0-3.71a1.09,1.09,0,0,1,0-.26.21.21,0,0,1,.23-.14.19.19,0,0,1,.16.2.57.57,0,0,1,0,.13V7.59C13.67,7.78,13.64,7.81,13.45,7.86Z" transform="translate(0 -1.28)"/><path class="cls-1" d="M6.31,3.61c0,.18-.09.39-.15.59a10,10,0,0,1-.63,1.6A9.07,9.07,0,0,1,4.34,7.56c-.14.17-.29.33-.45.49a.19.19,0,0,1-.29,0,.21.21,0,0,1,0-.31c.12-.15.25-.28.38-.42a8.11,8.11,0,0,0,1.4-2.21,9.1,9.1,0,0,0,.5-1.5.57.57,0,0,1,0-.14.21.21,0,0,1,.24-.13A.22.22,0,0,1,6.31,3.61Z" transform="translate(0 -1.28)"/><path class="cls-1" d="M2.56,7.86c-.17,0-.23-.07-.23-.26V3.51a.2.2,0,0,1,.15-.18.2.2,0,0,1,.22.1.71.71,0,0,1,.06.24V7.49C2.76,7.64,2.73,7.86,2.56,7.86Z" transform="translate(0 -1.28)"/></svg>