<svg id="Layer_1" data-name="Layer 1" xmlns="http://www.w3.org/2000/svg" viewBox="0 0 16 16"><defs><style>.cls-1{fill:#2dabe3;}</style></defs><path class="cls-1" d="M10,6.25,9.7,5.41l.71-.52a.8.8,0,0,0,.3-.92.87.87,0,0,0-.78-.64H9l-.26-.76a.82.82,0,0,0-1.56,0L7,3.33H6.07A.87.87,0,0,0,5.29,4a.8.8,0,0,0,.3.92l.71.52L6,6.25a.82.82,0,0,0,1.27.92L8,6.66l.7.51a.81.81,0,0,0,.48.16.88.88,0,0,0,.49-.15.84.84,0,0,0,.3-.93Zm-.69.38a.14.14,0,0,1-.19,0L8.2,6a.32.32,0,0,0-.4,0l-.89.65a.14.14,0,0,1-.19,0,.13.13,0,0,1,0-.17L7,5.39A.31.31,0,0,0,6.89,5L6,4.35a.14.14,0,0,1-.06-.17C6,4.07,6,4,6.07,4H7.19a.33.33,0,0,0,.32-.23l.34-1a.16.16,0,0,1,.3,0l.34,1A.34.34,0,0,0,8.81,4H9.93s.11.07.15.18a.14.14,0,0,1-.06.17L9.11,5A.33.33,0,0,0,9,5.39l.35,1.07a.14.14,0,0,1-.06.17Zm.74,4c4.41-.12,6-2.46,6-4.45A2.2,2.2,0,0,0,14.18,4,9.76,9.76,0,0,0,14.57,3a2.27,2.27,0,0,0-.36-2A2.32,2.32,0,0,0,12.33,0H3.67A2.32,2.32,0,0,0,1.79.94a2.24,2.24,0,0,0-.36,2A9.76,9.76,0,0,0,1.82,4,2.2,2.2,0,0,0,0,6.21c0,2,1.57,4.33,6,4.45A2.64,2.64,0,0,1,6,11v2.72a1.6,1.6,0,0,1-1.67,1.66H3.67a.34.34,0,1,0,0,.67h8.66a.34.34,0,1,0,0-.67h-.66A1.6,1.6,0,0,1,10,13.67V11a2.64,2.64,0,0,1,0-.29Zm5.31-4.45C15.33,8,14,9.84,10.13,10a3.58,3.58,0,0,1,1.14-1.81,11.09,11.09,0,0,0,2.61-3.5,1.53,1.53,0,0,1,1.45,1.53ZM.67,6.21A1.53,1.53,0,0,1,2.11,4.68a11.12,11.12,0,0,0,2.62,3.5A3.58,3.58,0,0,1,5.87,10C2,9.84.67,8,.67,6.21ZM6,15.33a2.17,2.17,0,0,0,.66-1.66V11A4.28,4.28,0,0,0,5.16,7.67,11,11,0,0,1,2.07,2.76a1.61,1.61,0,0,1,.25-1.42A1.66,1.66,0,0,1,3.67.67h8.66a1.64,1.64,0,0,1,1.34.67,1.58,1.58,0,0,1,.26,1.42,10.92,10.92,0,0,1-3.09,4.91A4.28,4.28,0,0,0,9.33,11v2.72A2.17,2.17,0,0,0,10,15.33Z" transform="translate(0)"/></svg>