<svg id="Layer_1" data-name="Layer 1" xmlns="http://www.w3.org/2000/svg" viewBox="0 0 16 16"><defs><style>.cls-1{fill:#f39323;}</style></defs><path class="cls-1" d="M16,12.7a1.06,1.06,0,0,0-.3-.64L13.3,9.67a2.48,2.48,0,0,0,0-.27.88.88,0,0,1,.4-.93,2.16,2.16,0,0,0,1-1.8,2.14,2.14,0,0,0-1-1.8.89.89,0,0,1-.4-.94,2.09,2.09,0,0,0,0-1.08A2.06,2.06,0,0,0,11.8,1.42a2.09,2.09,0,0,0-1.08,0A.88.88,0,0,1,9.79,1,2.25,2.25,0,0,0,9,.26a2.09,2.09,0,0,0-2,0A2.16,2.16,0,0,0,6.2,1a.89.89,0,0,1-.93.4A2.14,2.14,0,0,0,2.75,2.85a2.24,2.24,0,0,0,0,1.09.89.89,0,0,1-.4.93,2.14,2.14,0,0,0,0,3.6.88.88,0,0,1,.4.93,2.66,2.66,0,0,0,0,.28L.31,12.07a1,1,0,0,0-.3.63A1.05,1.05,0,0,0,1,13.87L2,14l.12,1a1.07,1.07,0,0,0,1.06,1,1.06,1.06,0,0,0,.75-.31l2.79-2.8A1.92,1.92,0,0,0,8,13.33a1.94,1.94,0,0,0,1.27-.44l2.8,2.8a1.06,1.06,0,0,0,.75.31,1.07,1.07,0,0,0,1.06-.95L14,14l1.06-.12A1.05,1.05,0,0,0,16,12.7ZM3.46,15.22a.38.38,0,0,1-.41.09A.41.41,0,0,1,2.79,15l-.17-1.59L1,13.21a.4.4,0,0,1-.35-.44.38.38,0,0,1,.11-.23l2-2a2.12,2.12,0,0,0,1.4,1.38,2.24,2.24,0,0,0,1.09,0,1,1,0,0,1,1,.47l-2.8,2.8Zm5.22-2.73a1.47,1.47,0,0,1-1.38,0,1.44,1.44,0,0,1-.54-.5,1.55,1.55,0,0,0-1.31-.72,2.62,2.62,0,0,1-1.08,0,1.45,1.45,0,0,1-1-1,1.47,1.47,0,0,1,0-.75,1.56,1.56,0,0,0-.69-1.64,1.47,1.47,0,0,1,0-2.48,1.57,1.57,0,0,0,.69-1.64,1.51,1.51,0,0,1,0-.76,1.45,1.45,0,0,1,1-1,1.59,1.59,0,0,1,.75,0,1.55,1.55,0,0,0,1.64-.69A1.53,1.53,0,0,1,7.3.84a1.47,1.47,0,0,1,1.38,0,1.53,1.53,0,0,1,.54.5A1.55,1.55,0,0,0,10.86,2a1.64,1.64,0,0,1,.76,0,1.43,1.43,0,0,1,1,1,1.51,1.51,0,0,1,0,.76,1.55,1.55,0,0,0,.69,1.64,1.48,1.48,0,0,1,0,2.48,1.54,1.54,0,0,0-.69,1.64,1.48,1.48,0,0,1,0,.75,1.43,1.43,0,0,1-1,1,1.41,1.41,0,0,1-.76,0A1.57,1.57,0,0,0,9.22,12a1.45,1.45,0,0,1-.54.5Zm6.3.72-1.59.17L13.21,15a.41.41,0,0,1-.26.33.38.38,0,0,1-.41-.09L9.73,12.41a1,1,0,0,1,1-.46,2.2,2.2,0,0,0,1.08,0,2.11,2.11,0,0,0,1.41-1.39l2,2a.44.44,0,0,1,.11.24A.39.39,0,0,1,15,13.21ZM11.35,5.73V4.67H8.66l.32-1a.69.69,0,0,0,0-.35.83.83,0,0,0-1.15-.57,1.09,1.09,0,0,0-.43.37L6.14,4.67H5.47a.8.8,0,0,0-.8.8V8.53a.8.8,0,0,0,.8.8h5.14Zm-6,2.8V5.47a.14.14,0,0,1,.14-.14H6V8.67H5.47A.14.14,0,0,1,5.33,8.53Zm1.34.14V5.08L8.05,3.36c.14-.14.32,0,.29.15l-.6,1.82h2.95v.3l-.63,3Z" transform="translate(0 0)"/></svg>