<svg id="Layer_1" data-name="Layer 1" xmlns="http://www.w3.org/2000/svg" viewBox="0 0 16 15.33"><defs><style>.cls-1{fill:#05ab9e;}</style></defs><path class="cls-1" d="M13.16,15.67h0l-3.44,0-1.88,0-1.25,0a1.17,1.17,0,0,1-1-.86,2,2,0,0,1-.06-.48V12c0-1.45,0-2.9,0-4.35A2,2,0,0,1,6,6.34,10.5,10.5,0,0,1,7.12,5.18l.44-.41C8,4.38,8.34,4,8.73,3.58A1.32,1.32,0,0,0,9,2.68c0-.53.05-1.1.12-1.66s.43-.73.92-.67A1.86,1.86,0,0,1,11.73,2a4.9,4.9,0,0,1,0,2A11.82,11.82,0,0,1,11,6.18h3.47A1.45,1.45,0,0,1,15.81,7a1.54,1.54,0,0,1,0,1.55A1.47,1.47,0,0,1,15.3,9a1.61,1.61,0,0,1,.2,1.16,1.51,1.51,0,0,1-.66,1,1.57,1.57,0,0,1,.2,1.16,1.5,1.5,0,0,1-.66,1,1.69,1.69,0,0,1,.23.91,1.54,1.54,0,0,1-.49,1.08A1.44,1.44,0,0,1,13.16,15.67ZM9.81,1a.89.89,0,0,1,0,.11c-.07.54-.09,1.09-.12,1.6A1.93,1.93,0,0,1,9.2,4c-.39.41-.78.82-1.19,1.21l-.45.42a11.31,11.31,0,0,0-1.09,1.1,1.29,1.29,0,0,0-.34.9q0,2.17,0,4.35v2.24a1.22,1.22,0,0,0,0,.32.48.48,0,0,0,.43.36l1.24,0,1.88,0,3.43,0h0a.72.72,0,0,0,.5-.21.93.93,0,0,0,.29-.63,1,1,0,0,0-.24-.67.36.36,0,0,1-.08-.09l-.26-.36.39-.18a.88.88,0,0,0,.63-.69,1,1,0,0,0-.3-.91l-.34-.36.46-.17a.87.87,0,0,0,.63-.69.92.92,0,0,0-.29-.9l-.32-.33.6-.29a.77.77,0,0,0,.36-.33.88.88,0,0,0,0-.91.8.8,0,0,0-.76-.46H10.7a.42.42,0,0,1-.42-.65,11.5,11.5,0,0,0,.77-2.35,4.35,4.35,0,0,0,0-1.75A1.22,1.22,0,0,0,10,1Z" transform="translate(0 -0.33)"/><path class="cls-1" d="M2.31,15.59H1.24A1.18,1.18,0,0,1,0,14.34V7.41a1.18,1.18,0,0,1,.65-1.1,1.1,1.1,0,0,1,.51-.13h.9c.45,0,.89,0,1.34,0a1.22,1.22,0,0,1,.86.34,1.25,1.25,0,0,1,.38.88v7a1.2,1.2,0,0,1-.73,1.16,1.3,1.3,0,0,1-.46.08ZM1.57,6.83h-.4a.6.6,0,0,0-.21,0,.56.56,0,0,0-.31.53v6.93a.53.53,0,0,0,.58.59h2.2a.53.53,0,0,0,.2,0A.54.54,0,0,0,4,14.34V7.4A.56.56,0,0,0,3.8,7a.51.51,0,0,0-.38-.15H1.57Z" transform="translate(0 -0.33)"/></svg>