<svg id="Layer_1" data-name="Layer 1" xmlns="http://www.w3.org/2000/svg" viewBox="0 0 16 16"><defs><style>.cls-1{fill:#e6332a;}.cls-2{fill:#c6c6c6;}</style></defs><path class="cls-1" d="M13.11,3.92,3.92,13.11A.24.24,0,0,1,3.81,13h0l-.1-.09a6,6,0,0,1-.61-.62L3,12.21s0,0,0,0l-.09-.11,9.2-9.2L12.2,3s0,0,0,0l.1.09a7.15,7.15,0,0,1,.62.61l.09.1v0A.24.24,0,0,1,13.11,3.92Z"/><path class="cls-2" d="M8,0a8,8,0,1,0,8,8A8,8,0,0,0,8,0ZM8,14.55a6.51,6.51,0,0,1-4.08-1.44A.24.24,0,0,1,3.81,13h0l-.1-.09a6,6,0,0,1-.61-.62L3,12.21s0,0,0,0l-.09-.11A6.54,6.54,0,0,1,8,1.45a6.57,6.57,0,0,1,4.09,1.44L12.2,3s0,0,0,0l.1.09a7.15,7.15,0,0,1,.62.61l.09.1v0a.24.24,0,0,1,.09.11A6.54,6.54,0,0,1,8,14.55Z"/></svg>