<svg id="Layer_1" data-name="Layer 1" xmlns="http://www.w3.org/2000/svg" viewBox="0 0 16 12.8"><defs><style>.cls-1{fill:#2dabe3;}</style></defs><path class="cls-1" d="M14.26,6.47A2.52,2.52,0,0,0,16,4.26v-.2C16,2.7,14.62,1.6,12.92,1.6H3.07C1.38,1.6,0,2.7,0,4.06v.2A2.53,2.53,0,0,0,1.74,6.47,1.72,1.72,0,0,1,2.9,8,1.72,1.72,0,0,1,1.74,9.53,2.52,2.52,0,0,0,0,11.74v.2C0,13.3,1.38,14.4,3.07,14.4h9.86c1.69,0,3.07-1.1,3.07-2.46v-.2a2.52,2.52,0,0,0-1.74-2.21A1.73,1.73,0,0,1,13.09,8,1.73,1.73,0,0,1,14.26,6.47ZM11.6,8a2.9,2.9,0,0,0,2,2.59,1.34,1.34,0,0,1,.93,1.15v.2a1.44,1.44,0,0,1-1.57,1.26H3.07A1.44,1.44,0,0,1,1.5,11.94v-.2a1.33,1.33,0,0,1,.92-1.15A2.89,2.89,0,0,0,4.4,8a2.9,2.9,0,0,0-2-2.59A1.33,1.33,0,0,1,1.5,4.26v-.2A1.44,1.44,0,0,1,3.07,2.8h9.85A1.44,1.44,0,0,1,14.5,4.06v.2a1.34,1.34,0,0,1-.93,1.15A2.9,2.9,0,0,0,11.6,8Z" transform="translate(0 -1.6)"/><path class="cls-1" d="M10.75,9.72a1,1,0,0,1-.29.77,1,1,0,0,1-.73.27A1,1,0,0,1,9,10.49a1,1,0,0,1-.28-.77A1,1,0,0,1,9,9a1,1,0,0,1,.74-.26.95.95,0,0,1,1,1Z" transform="translate(0 -1.6)"/><path class="cls-1" d="M7.3,6.28A1,1,0,0,1,7,7a1,1,0,0,1-.73.26.95.95,0,0,1-1-1,1,1,0,0,1,.29-.76A1.15,1.15,0,0,1,7,5.52.93.93,0,0,1,7.3,6.28Z" transform="translate(0 -1.6)"/><path class="cls-1" d="M10.58,6.27,6.27,10.58a.58.58,0,0,1-.42.16H5.74a.64.64,0,0,1-.45-.36.61.61,0,0,1,.14-.66l4.3-4.3a.6.6,0,0,1,.85.85Z" transform="translate(0 -1.6)"/></svg>