<svg id="Layer_1" data-name="Layer 1" xmlns="http://www.w3.org/2000/svg" viewBox="0 0 16 14.42"><defs><style>.cls-1{fill:#58b03b;}</style></defs><path class="cls-1" d="M14,6.89a1.68,1.68,0,0,0,1.67,1.42H16v2.12h-.77V9.12L15,9.05a2.4,2.4,0,0,1-1.86-2.58A2.41,2.41,0,0,1,15,4.27l.2-.06V1.57H.79V4.18l.2.07a2.45,2.45,0,0,1,1.84,2.6,2.23,2.23,0,0,1-.56,1.34A2.54,2.54,0,0,1,1,9l-.21.06v2.65H8.42v.78H0V8.3H.42a1.67,1.67,0,0,0,.9-.3A1.64,1.64,0,0,0,2,6.16,1.66,1.66,0,0,0,.37,5H0V.79H16V5h-.2a3.88,3.88,0,0,0-.57,0A1.67,1.67,0,0,0,14,6.89Z" transform="translate(0 -0.79)"/><polygon class="cls-1" points="15.31 11.61 15.31 12.37 13.25 12.37 13.25 14.42 12.44 14.42 12.44 12.38 10.38 12.38 10.38 11.61 12.44 11.61 12.44 9.58 13.24 9.58 13.24 11.61 15.31 11.61"/></svg>