<svg id="Layer_1" data-name="Layer 1" xmlns="http://www.w3.org/2000/svg" viewBox="0 0 15.93 16"><defs><style>.cls-1{fill:#e52629;}</style></defs><path class="cls-1" d="M15.87,14.31c0-.09-.09-.18-.14-.27l-.13-.23c-.37-.63-.73-1.26-1.1-1.88a.76.76,0,0,1-.11-.42q0-3.82,0-7.65a2.32,2.32,0,0,0-.18-.94,1.81,1.81,0,0,0-1.74-1.09c-.21,0-.41,0-.63,0h-.12v-1A.8.8,0,0,0,10.9,0h-.17c-.62,0-1,0-1.26.23s-.26.6-.23,1.26v.31h-4V.92A.83.83,0,0,0,4.27,0h-.4A1.13,1.13,0,0,0,3,.24a1.11,1.11,0,0,0-.24.92,5.42,5.42,0,0,1,0,.57v.1H2.59c-.21,0-.4,0-.6,0A1.87,1.87,0,0,0,0,3.78c0,2.87,0,5.74,0,8.61a2.35,2.35,0,0,0,.08.6A1.87,1.87,0,0,0,2,14.35H7.49a1.25,1.25,0,0,0,.06,1,1.19,1.19,0,0,0,.91.58,2.6,2.6,0,0,0,.4,0h5.42a5.15,5.15,0,0,0,.56,0,1.22,1.22,0,0,0,1-.55A1.28,1.28,0,0,0,15.87,14.31ZM2.71,3.45a.82.82,0,0,0,.87.84h.77a.82.82,0,0,0,.84-.83v-.9H9.24v.89a.81.81,0,0,0,.83.84h.82a.8.8,0,0,0,.82-.82V2.55H12a2.43,2.43,0,0,1,.9.08,1,1,0,0,1,.73.86,11.38,11.38,0,0,1,0,1.31c0,.14,0,.27,0,.41H.77V4.8a10.87,10.87,0,0,1,0-1.28,1.09,1.09,0,0,1,1.08-1h.84v.9ZM4.46.88c0,.3,0,.59,0,.89v.75q0,.45,0,.9c0,.13,0,.15-.14.15H3.57c-.12,0-.14,0-.14-.14V.87c0-.13,0-.14.14-.14h.74C4.45.73,4.46.74,4.46.88ZM11,3.44c0,.1,0,.13-.15.13H10.1c-.12,0-.14,0-.14-.14V.87c0-.13,0-.14.14-.14h.74c.15,0,.15,0,.15.13ZM.75,6H13.66v4.52l-.79-1.35-.13-.21a1.25,1.25,0,0,0-1.08-.62A1.28,1.28,0,0,0,10.61,9c-.31.51-.6,1-.9,1.54L9.42,11l-1,1.71-.56,1H2.09A1.21,1.21,0,0,1,.75,12.28Zm7.47,8.53c.14-.26.29-.52.44-.78l2.48-4.25.07-.11A.61.61,0,0,1,11.69,9h0a.58.58,0,0,1,.46.33l2.46,4.22.51.87.09.19a.5.5,0,0,1,0,.42.53.53,0,0,1-.37.21,1.83,1.83,0,0,1-.33,0H8.66A.59.59,0,0,1,8.17,15,.57.57,0,0,1,8.22,14.49Z" transform="translate(-0.04 0)"/><path class="cls-1" d="M11.69,13.32h0a.79.79,0,0,0,.77-.83V10.94a.8.8,0,0,0-.79-.83h0a.78.78,0,0,0-.79.8c0,.54,0,1.07,0,1.6a.84.84,0,0,0,.24.6A.82.82,0,0,0,11.69,13.32Zm.07-.81c0,.09,0,.1-.12.09a.16.16,0,0,1,0-.09V10.92c0-.07,0-.09.07-.09h.05a.2.2,0,0,1,0,.1v1.58Z" transform="translate(-0.04 0)"/></svg>