<svg id="Layer_1" data-name="Layer 1" xmlns="http://www.w3.org/2000/svg" viewBox="0 0 17 17"><defs><style>.cls-1{fill:#fff;stroke:#000;stroke-miterlimit:10;}</style></defs><circle class="cls-1" cx="8.5" cy="8.5" r="8"/><path d="M126.75,126.47l0,0h0l-.72,1.13-.07.11-.54.84-.35.57a1.37,1.37,0,0,0-.13.2,2.45,2.45,0,0,0,.57,3.09,2.35,2.35,0,0,1-1.6-1.48,2.68,2.68,0,0,1-.14-.65,2.5,2.5,0,0,1,.35-1.46h0l0-.07.44-.7.6-.93.16-.25h0l.84-1.34,0-.06a.82.82,0,0,0,.12-.49,1.55,1.55,0,0,0,0-.23,1.31,1.31,0,0,1,.27.19,1.21,1.21,0,0,1,.36.77A1.17,1.17,0,0,1,126.75,126.47Z" transform="translate(-119.51 -119.64)"/><path d="M131.77,127.53h0l0,.06-.34.53-.59.92-.27.44h0l-.85,1.33a.16.16,0,0,0,0,.07.81.81,0,0,0-.11.49.54.54,0,0,0,.05.22,1.26,1.26,0,0,1-.28-.19,1.21,1.21,0,0,1-.36-.77,1.2,1.2,0,0,1,.17-.7l0,0v0l.79-1.24,0,0,.61-1,.26-.4.12-.2a2.43,2.43,0,0,0-.57-3.1,2.35,2.35,0,0,1,1.6,1.48,2.9,2.9,0,0,1,.14.65A2.41,2.41,0,0,1,131.77,127.53Z" transform="translate(-119.51 -119.64)"/><path d="M132.51,130.54a3,3,0,1,1-6,0v-.19a.22.22,0,0,1,0-.08v-.05s0-.05,0-.07,0-.11,0-.16,0-.06,0-.09,0-.06,0-.09,0-.05,0-.08h0a.24.24,0,0,0,0-.08h0l0-.08a2,2,0,0,1,.1-.26l0-.07,0-.08.19-.33,0,0h0l1.14-2,0-.06a.59.59,0,0,0,0-.08l0,0a1.34,1.34,0,0,0,.07-.18s0,0,0-.05a.14.14,0,0,1,0-.06s0,0,0-.06,0-.05,0-.07h0s0,0,0-.06a.15.15,0,0,0,0-.07.09.09,0,0,0,0,0,.22.22,0,0,0,0-.08.13.13,0,0,1,0-.06v-.13a1.94,1.94,0,1,0-3.87,0v.06a.06.06,0,0,0,0,0V126a.28.28,0,0,1,0,.09.11.11,0,0,1,0,0s0,.07,0,.1v0l.05.17v0l0,0,0,.08h0l0,.08h0a.25.25,0,0,1,0,.07l.05.08,0,.07,0,.06v0l0,.07,0,.06h0l.09.09-.6.93-.15-.14-.16-.17,0-.06-.1-.12,0-.05,0-.06a.43.43,0,0,0,0-.07l0-.06,0-.06h0l0-.07,0-.06a.16.16,0,0,0,0-.07l0-.07,0-.07,0-.07s0-.05,0-.07-.07-.22-.1-.33,0,0,0-.06l0-.18v-.05a3.59,3.59,0,0,1,0-.47,3,3,0,1,1,6,0V126a.25.25,0,0,1,0,.08v0s0,0,0,.08,0,0,0,.07v0s0,.06,0,.09,0,0,0,.08v0a.14.14,0,0,1,0,.06s0,0,0,.07l0,0a.64.64,0,0,1,0,.07s0,0,0,0a2,2,0,0,1-.1.26.3.3,0,0,1,0,.08l0,.09a.56.56,0,0,1-.05.08l0,.06a.54.54,0,0,0-.07.13h0l-1.13,2h0l0,.07h0l0,.06h0l0,0,0,0a.61.61,0,0,0,0,.12s0,0,0,.06l0,.06h0s0,0,0,.06h0v.06h0v.14s0,0,0,0v.15h0s0,0,0,.07h0v.06a1.94,1.94,0,1,0,3.87,0v-.11h0v-.13a.08.08,0,0,1,0,0v-.08h0v-.06s0-.06,0-.08h0a.14.14,0,0,1,0-.07h0v0a.14.14,0,0,0,0-.06.24.24,0,0,1,0-.08h0l0-.08h0l0,0v0l0-.06h0a.16.16,0,0,0,0-.07.41.41,0,0,0,0-.09l0,0a.21.21,0,0,0,0-.06,1.86,1.86,0,0,0-.23-.26l.59-.92a2.81,2.81,0,0,1,.31.29l0,.05.09.11h0l0,.06,0,.05,0,.06.07.12a.53.53,0,0,1,.06.1,1.09,1.09,0,0,1,.08.15l0,.06,0,0s0,.07,0,.11l0,.06a.19.19,0,0,1,0,.07l0,.07a.31.31,0,0,1,0,.08l0,.06a.43.43,0,0,1,0,0s0,0,0,.06a.29.29,0,0,0,0,.09s0,0,0,.06a.51.51,0,0,1,0,.13.43.43,0,0,1,0,.05v0a.13.13,0,0,1,0,.06.13.13,0,0,0,0,.06v.1A.92.92,0,0,1,132.51,130.54Z" transform="translate(-119.51 -119.64)"/></svg>