<svg id="Layer_1" data-name="Layer 1" xmlns="http://www.w3.org/2000/svg" viewBox="0 0 16 14.66"><defs><style>.cls-1{fill:#5e5e5e;}</style></defs><path class="cls-1" d="M13,.67H3a3,3,0,0,0-3,3V11a3,3,0,0,0,3,3H9.66a.34.34,0,1,0,0-.67H3A2.33,2.33,0,0,1,.67,11V4.67H15.33v5.66a.33.33,0,1,0,.66,0V3.67A3,3,0,0,0,13,.67ZM.67,4V3.67A2.33,2.33,0,0,1,3,1.34H13a2.33,2.33,0,0,1,2.34,2.33V4Zm9.7,3.35a2.32,2.32,0,0,0-1.65-.68H7.66A.33.33,0,0,0,7.33,7V8.06A2.27,2.27,0,0,0,8,9.71l5.13,5.13a1.66,1.66,0,0,0,1.18.49A1.67,1.67,0,0,0,16,13.66a1.66,1.66,0,0,0-.49-1.18L10.38,7.35Zm4.66,7a1,1,0,0,1-1.41,0L8.48,9.24A1.66,1.66,0,0,1,8,8.06V7.33h.72a1.66,1.66,0,0,1,1.18.49L15,13a1,1,0,0,1,.29.7,1,1,0,0,1-.29.71Z" transform="translate(0 -0.67)"/></svg>