<svg id="Layer_1" data-name="Layer 1" xmlns="http://www.w3.org/2000/svg" viewBox="0 0 16 16"><defs><style>.cls-1{fill:#5e5e5e;}</style></defs><path class="cls-1" d="M8,16H3a3.2,3.2,0,0,1-1.34-.21A2.44,2.44,0,0,1,.07,13.69C0,13.07,0,12.45,0,11.82Q0,7.61,0,3.37A7.6,7.6,0,0,1,.13,1.94,2.4,2.4,0,0,1,2.11.1a19.57,19.57,0,0,1,2-.09h7.73c.6,0,1.21,0,1.82.06a2.44,2.44,0,0,1,2.22,2.06A8.47,8.47,0,0,1,16,3.36Q16,8,16,12.64a7.5,7.5,0,0,1-.12,1.42,2.43,2.43,0,0,1-2,1.84c-.69.07-1.38.08-2.07.09C10.56,16,9.28,16,8,16ZM.67,8c0,1.53,0,3.07,0,4.61a8.62,8.62,0,0,0,.07,1.14,1.78,1.78,0,0,0,1.4,1.49,7,7,0,0,0,1,.09h8.57c.67,0,1.33,0,2-.07a1.74,1.74,0,0,0,1.5-1.4,7.09,7.09,0,0,0,.1-1.22V3.37a10,10,0,0,0-.07-1.09A1.78,1.78,0,0,0,13.85.77,7.85,7.85,0,0,0,12.66.68c-2.79,0-5.57,0-8.36,0-.68,0-1.36,0-2,.07A1.73,1.73,0,0,0,.77,2.15,7.2,7.2,0,0,0,.68,3.38C.67,4.92.67,6.45.67,8Z" transform="translate(0 0)"/><path class="cls-1" d="M2.34,6c0-.69,0-1.39,0-2.08A1.46,1.46,0,0,1,3.88,2.34H8a1.78,1.78,0,0,1,1.32.55Q11.18,4.71,13,6.53a2,2,0,0,1,.65,1.58,1.85,1.85,0,0,1-.55,1.25c-1.25,1.25-2.5,2.51-3.76,3.75a1.92,1.92,0,0,1-2.72,0l-2-2L2.9,9.37A1.8,1.8,0,0,1,2.33,8C2.34,7.33,2.34,6.65,2.34,6ZM3,6C3,6.64,3,7.3,3,8a1.26,1.26,0,0,0,.4,1l3.65,3.64a1.31,1.31,0,0,0,1.9,0l3.63-3.64a1.27,1.27,0,0,0,0-1.88L8.88,3.35A1.15,1.15,0,0,0,8,3H3.88A.81.81,0,0,0,3,3.89Z" transform="translate(0 0)"/><path class="cls-1" d="M6,9a.33.33,0,0,1-.36-.25.31.31,0,0,1,.2-.38c.17-.07.34-.12.52-.18L9.77,7.06,9.9,7a.32.32,0,0,1,.39.22.32.32,0,0,1-.18.41l-.51.17L6.23,8.94A1.08,1.08,0,0,1,6,9Z" transform="translate(0 0)"/><path class="cls-1" d="M8.66,10.83a1,1,0,1,1,1-1A1,1,0,0,1,8.66,10.83Zm0-1.33a.33.33,0,0,0-.33.33.33.33,0,1,0,.33-.33Z" transform="translate(0 0)"/><path class="cls-1" d="M7.34,7.16a1,1,0,1,1,1-1A1,1,0,0,1,7.34,7.16Zm0-1.32A.32.32,0,0,0,7,6.16a.33.33,0,1,0,.66,0A.33.33,0,0,0,7.34,5.84Z" transform="translate(0 0)"/><path class="cls-1" d="M4.33,4.67A.32.32,0,0,1,4,4.33.32.32,0,0,1,4.33,4a.34.34,0,0,1,.34.33A.34.34,0,0,1,4.33,4.67Z" transform="translate(0 0)"/></svg>