<svg id="Layer_1" data-name="Layer 1" xmlns="http://www.w3.org/2000/svg" viewBox="0 0 13.08 16"><defs><style>.cls-1{fill:#5e5e5e;}</style></defs><path class="cls-1" d="M14.54,9.35c0-.28-.11-.4-.39-.4H13a6,6,0,0,0-3-2.44,3.24,3.24,0,0,0,.55-2.32,2.56,2.56,0,0,0,1.2.53.66.66,0,0,0,.73-.4.71.71,0,0,0-.06-.72,1.47,1.47,0,0,0-.62-.52l-1.44-.66s0,0,0-.06A3.35,3.35,0,0,0,7.37,0,3.31,3.31,0,0,0,4,2.61a5.81,5.81,0,0,0-.08,1c0,.13,0,.25,0,.38,0,.28,0,.34.24.43A3.31,3.31,0,0,0,4.7,6.52l0,0a7.71,7.71,0,0,0-2,1.27,3.11,3.11,0,0,0-1.15,2.27c0,1.32,0,2.33,0,3.28A2.71,2.71,0,0,0,4.2,16h9.94c.28,0,.4-.12.4-.41ZM4.29,13.59H7.16a.87.87,0,0,1,.88.55A.92.92,0,0,1,8,15a.86.86,0,0,1-.72.38c-.86,0-2,0-3.1,0a2,2,0,0,1-2-1.67A3.74,3.74,0,0,1,2.09,13V12.8H3.88v.38C3.88,13.48,4,13.59,4.29,13.59Zm.47-9.14h1a.28.28,0,0,1,.15.07l.32.21a3.73,3.73,0,0,0,.63.4,1.94,1.94,0,0,0,1.87,0c.32-.17.62-.36.92-.55.12-.08.24-.16.37-.23A2.62,2.62,0,0,1,6,6.89,2.61,2.61,0,0,1,4.76,4.45Zm3.36.21a1.17,1.17,0,0,1-1-.06c-.17-.08-.34-.18-.52-.28l-.08-.05.76-.33,1.79-.79a1.46,1.46,0,0,1,1.42,0l.08,0a5.15,5.15,0,0,0-.93.57c-.17.12-.33.24-.5.34A8,8,0,0,1,8.12,4.66Zm.4-1.94-.34.16C7.8,3,7.41,3.21,7,3.39l-.56.25a2.06,2.06,0,0,1-.89.18H4.52A2.73,2.73,0,0,1,6.57.71,2.68,2.68,0,0,1,9.71,2.34,3.39,3.39,0,0,0,8.52,2.72ZM9.64,7A5.89,5.89,0,0,1,12.28,9h-6c-.32,0-.42.1-.42.43V13H4.51V10.7a.31.31,0,0,0-.31-.29h0a.29.29,0,0,0-.31.31v1.42H2.11c0-.19,0-.38,0-.57,0-.51,0-1,0-1.55A2.28,2.28,0,0,1,2.83,8.5,6.65,6.65,0,0,1,5.12,7,3.31,3.31,0,0,0,9.64,7Zm1.14,5.22-.13-.11-.23-.21a.32.32,0,0,0-.49,0l-.27.24-.1.09V9.59h1.22Zm-2.2,1.58A1.47,1.47,0,0,0,7.22,13H6.44V9.59H8.92a.13.13,0,0,1,0,.06v3.18a.36.36,0,0,0,0,.14v0c0,.08.08.19.17.23a.39.39,0,0,0,.36-.07c.16-.13.31-.27.46-.41l.18-.17.05,0,.66.59a.34.34,0,0,0,.4.11.37.37,0,0,0,.19-.39V9.59H13.9v5.77H8.45A1.44,1.44,0,0,0,8.58,13.82ZM12,4.07s0,0-.19,0A2,2,0,0,1,11,3.72a.74.74,0,0,1,.78.06l.07.06C12,4,12,4,12,4.07Z" transform="translate(-1.46)"/></svg>