<svg id="Layer_1" data-name="Layer 1" xmlns="http://www.w3.org/2000/svg" viewBox="0 0 16 16"><defs><style>.cls-1{fill:#5e5e5e;}</style></defs><path class="cls-1" d="M15,7.61a7,7,0,0,0-1.77-4.25l.74-.74-.55-.55-.74.74A7,7,0,0,0,8.39,1V0H7.61V1A7,7,0,0,0,3.36,2.81l-.74-.74-.55.55.74.74A7,7,0,0,0,1,7.61H0v.78H1a7,7,0,0,0,1.77,4.25l-.74.74.55.55.74-.74A7,7,0,0,0,7.61,15v1h.78V15a7,7,0,0,0,4.25-1.77l.74.74.55-.55-.74-.74A7,7,0,0,0,15,8.39h1V7.61Zm-11.13,5-.4-.4A6.14,6.14,0,0,1,1.82,8.28a2.72,2.72,0,0,1,0-.28,2.72,2.72,0,0,1,0-.28A6.14,6.14,0,0,1,3.43,3.83c.13-.14.26-.27.4-.4A6.14,6.14,0,0,1,7.72,1.82h.56a6.14,6.14,0,0,1,3.89,1.61c.14.13.27.26.4.4a6.14,6.14,0,0,1,1.61,3.89,2.72,2.72,0,0,1,0,.28,2.72,2.72,0,0,1,0,.28,6.14,6.14,0,0,1-1.61,3.89h0l-.4.4a6.14,6.14,0,0,1-3.89,1.61H7.72A6.14,6.14,0,0,1,3.83,12.57Z" transform="translate(0)"/><path class="cls-1" d="M11.46,11.57v.11h.73v-.11A4.19,4.19,0,0,0,8.78,7.46a2.27,2.27,0,1,0-1.56,0,4.19,4.19,0,0,0-3.41,4.11v.11h.73v-.11a3.46,3.46,0,0,1,6.92,0ZM9.55,5.32A1.55,1.55,0,1,1,8,3.77,1.54,1.54,0,0,1,9.55,5.32Z" transform="translate(0)"/></svg>