<svg id="Layer_1" data-name="Layer 1" xmlns="http://www.w3.org/2000/svg" viewBox="0 0 15.44 16"><defs><style>.cls-1{fill:#5e5e5e;}</style></defs><path class="cls-1" d="M15.44,3.64a.37.37,0,0,1-.37.36H8.53a.36.36,0,0,1-.37-.36.37.37,0,0,1,.37-.37h6.54A.38.38,0,0,1,15.44,3.64Z"/><path class="cls-1" d="M3.08,0A3.08,3.08,0,1,0,6.15,3.08,3.08,3.08,0,0,0,3.08,0Zm0,5.54A2.46,2.46,0,1,1,5.54,3.08,2.46,2.46,0,0,1,3.08,5.54Z"/><path class="cls-1" d="M3.08,9.85a3.08,3.08,0,1,0,3.07,3.07A3.08,3.08,0,0,0,3.08,9.85Zm0,5.53a2.46,2.46,0,1,1,2.46-2.46A2.46,2.46,0,0,1,3.08,15.38Z"/><path class="cls-1" d="M12.36,9.85a3.08,3.08,0,1,0,3.08,3.07A3.08,3.08,0,0,0,12.36,9.85Zm0,5.53a2.46,2.46,0,1,1,2.46-2.46A2.46,2.46,0,0,1,12.36,15.38Z"/></svg>