<svg id="Layer_1" data-name="Layer 1" xmlns="http://www.w3.org/2000/svg" viewBox="0 0 16 16"><defs><style>.cls-1{fill:#5e5e5e;}</style></defs><path class="cls-1" d="M15.63,6.46l-1.49-.2a.27.27,0,0,1-.25-.19c-.12-.32-.23-.57-.33-.8a.31.31,0,0,1,0-.34c.28-.36.56-.75.94-1.25a.34.34,0,0,0,0-.51C14,2.65,13.43,2.1,12.87,1.55a.34.34,0,0,0-.55,0l-.11.09-1.11.82a.29.29,0,0,1-.27,0L10,2.1a.31.31,0,0,1-.17-.2C9.71,1.34,9.63.84,9.56.36,9.53.1,9.42,0,9.16,0H6.87c-.27,0-.38.09-.42.36-.06.47-.13,1-.2,1.48a.28.28,0,0,1-.19.25c-.32.12-.57.22-.81.33a.27.27,0,0,1-.32,0l-1.2-.92h0a.35.35,0,0,0-.55,0l-.36.36L1.54,3.13a.36.36,0,0,0,0,.55L1.77,4l.64.86a.29.29,0,0,1,0,.31c-.12.27-.23.55-.34.81a.27.27,0,0,1-.23.19L.49,6.4l-.19,0a.32.32,0,0,0-.3.32V9.21a.31.31,0,0,0,.26.31l.16,0,.31,0,1.08.13A.33.33,0,0,1,2.1,10a7.92,7.92,0,0,0,.32.77.29.29,0,0,1,0,.32l-1,1.26a.34.34,0,0,0,0,.49l.11.12,1.56,1.58a.77.77,0,0,0,.18.1l.06,0,.07,0,.19-.09,1.22-.91A.26.26,0,0,1,5,13.52l.14,0,.44.19L6,13.9a.32.32,0,0,1,.19.2c.08.5.16,1,.23,1.54,0,.27.14.36.41.36H9.1c.28,0,.38-.09.42-.37l.2-1.47a.3.3,0,0,1,.2-.25c.29-.11.56-.22.82-.34a.26.26,0,0,1,.29,0l1.24.94a.33.33,0,0,0,.52,0l1.64-1.62a.35.35,0,0,0,0-.55l-.2-.26-.7-.95a.31.31,0,0,1-.05-.28c.1-.27.22-.55.36-.88a.29.29,0,0,1,.2-.16l1.55-.23c.28,0,.37-.14.37-.41V6.9C16,6.61,15.91,6.5,15.63,6.46ZM15.12,9l-.77.11-.44.06-.1,0-.18,0a.34.34,0,0,0-.29.27,5.54,5.54,0,0,1-.55,1.34.35.35,0,0,0,0,.42l.63.84.19.26.08.1.07.11-1.3,1.34-.29-.22-.49-.38-.13-.09-.42-.33a.35.35,0,0,0-.43,0,5.2,5.2,0,0,1-1.31.55.36.36,0,0,0-.29.35L9,14.55c0,.19-.05.39-.08.59a.2.2,0,0,1-.22.2H7.22A.22.22,0,0,1,7,15.12l-.17-1.18s0-.07,0-.11,0-.12,0-.17a.35.35,0,0,0-.27-.3,5.54,5.54,0,0,1-1.34-.55.33.33,0,0,0-.42,0l-.86.64-.24.18-.1.07-.13.1-.26-.26-.41-.41L2.59,13l-.32-.32a.23.23,0,0,1,0-.34l.47-.62.42-.56a.36.36,0,0,0,0-.44A5.17,5.17,0,0,1,2.62,9.4a.35.35,0,0,0-.33-.29L1.8,9.05.89,8.94a.24.24,0,0,1-.23-.27V7.27A.23.23,0,0,1,.89,7l.64-.1.74-.1c.23,0,.32-.11.38-.32a4.64,4.64,0,0,1,.53-1.26.35.35,0,0,0,0-.45c-.32-.43-.6-.8-.85-1.15a.25.25,0,0,1,0-.3l.93-.94.28-.27L4,2.48l.84.64a.37.37,0,0,0,.49,0,5.08,5.08,0,0,1,1.25-.52.36.36,0,0,0,.32-.37c.07-.53.13-1,.2-1.41A.24.24,0,0,1,7.27.66H8.75A.23.23,0,0,1,9,.88H9c0,.31.09.62.13.94l0,.24v0a.56.56,0,0,0,.5.61,4.66,4.66,0,0,1,.93.38l.14.07c.26.13.34.12.54,0l.9-.67.25-.19,0,0,.09-.05.06.07L13.84,3.5l-.21.28-.38.5c-.14.2-.28.38-.41.55a.35.35,0,0,0,0,.43,5.74,5.74,0,0,1,.55,1.32.35.35,0,0,0,.35.29l1.44.2a.23.23,0,0,1,.18.21c0,.28,0,.56,0,.83v.65A.22.22,0,0,1,15.12,9Z"/><path class="cls-1" d="M10.14,5.84A3,3,0,0,0,8,4.94H8a3,3,0,0,0-2.16.9A3.05,3.05,0,0,0,8,11.06H8A3.06,3.06,0,0,0,11,8,3,3,0,0,0,10.14,5.84ZM8,10.4H8a2.34,2.34,0,0,1-1.69-.71A2.4,2.4,0,0,1,8,5.6H8a2.39,2.39,0,0,1,.92.18A2.45,2.45,0,0,1,10.38,8,2.4,2.4,0,0,1,8,10.4Z"/></svg>