<svg id="Layer_1" data-name="Layer 1" xmlns="http://www.w3.org/2000/svg" viewBox="0 0 16 16"><defs><style>.cls-1{fill:#5e5e5e;}</style></defs><path class="cls-1" d="M14.33,8.67H9.67A1.66,1.66,0,0,0,8,10.33V16h8V10.33A1.66,1.66,0,0,0,14.33,8.67Zm1,6.66H8.67v-5a1,1,0,0,1,1-1h4.66a1,1,0,0,1,1,1Zm-4.66-4.66h2.66v.66H10.67ZM6.57,4.24,4.33,6.44a.77.77,0,0,1-1.1,0L2.05,5.3l.46-.48L3.7,6a.14.14,0,0,0,.16,0L6.1,3.76Zm0,3.33L4.33,9.77a.77.77,0,0,1-1.1,0L2.05,8.63l.46-.48L3.7,9.3c.06.06.1.06.16,0L6.1,7.1ZM10,6H7.33V5.33H10ZM3.86,12.63l2.24-2.2.47.47L4.33,13.11a.8.8,0,0,1-.55.22.78.78,0,0,1-.55-.22L2.05,12l.46-.48L3.7,12.63C3.76,12.7,3.8,12.69,3.86,12.63ZM7,.67H5a1,1,0,0,0-1,1V2H.67V14.33a1,1,0,0,0,1,1h5V16h-5A1.67,1.67,0,0,1,0,14.33v-13H3.37A1.65,1.65,0,0,1,5,0H7A1.65,1.65,0,0,1,8.63,1.33H12v6h-.67V2H8V1.67A1,1,0,0,0,7,.67Z" transform="translate(0)"/></svg>