<svg id="Layer_1" data-name="Layer 1" xmlns="http://www.w3.org/2000/svg" viewBox="0 0 15.66 16"><defs><style>.cls-1{fill:#5e5e5e;}</style></defs><g id="_01_align_center" data-name=" 01 align center"><path class="cls-1" d="M14.72,9.76H3.4l.13,1.13a1,1,0,0,0,1,.9h8.84v.74H4.55A1.77,1.77,0,0,1,2.8,11L1.7,1.64a1,1,0,0,0-1-.9H.17V0H.69A1.75,1.75,0,0,1,2.43,1.55l.07.53H7.84v.74H2.58L3.31,9H14.1l.38-2.08h.75Z" transform="translate(-0.17)"/><path class="cls-1" d="M5.76,14.94A1.06,1.06,0,1,1,4.7,13.88,1.06,1.06,0,0,1,5.76,14.94Z" transform="translate(-0.17)"/><path class="cls-1" d="M12.7,14.94a1.06,1.06,0,0,1-2.12,0,1.06,1.06,0,0,1,2.12,0Z" transform="translate(-0.17)"/><path class="cls-1" d="M15.83,1.57,12.41,5a1,1,0,0,1-.69.29h0A1,1,0,0,1,11,5L9.62,3.53,10.15,3l1.56,1.63,3.6-3.6Z" transform="translate(-0.17)"/></g></svg>