<svg id="Layer_1" data-name="Layer 1" xmlns="http://www.w3.org/2000/svg" viewBox="0 0 15.58 16"><defs><style>.cls-1{fill:#5e5e5e;}</style></defs><path class="cls-1" d="M7.12,13.26l-.24,0v-6l5.25-3a2.18,2.18,0,0,1,.09.63V6.33a.33.33,0,0,0,.33.33h0a.33.33,0,0,0,.34-.33V4.91a3,3,0,0,0-1.51-2.62L8,.39a3,3,0,0,0-3,0L1.72,2.3A3,3,0,0,0,.21,4.9V9.1a3,3,0,0,0,1.51,2.6l3.34,1.9a2.89,2.89,0,0,0,1.48.4,3.06,3.06,0,0,0,.74-.09.35.35,0,0,0,.25-.41.33.33,0,0,0-.41-.24ZM2.05,2.88,5.39,1A2.32,2.32,0,0,1,7.7,1L11,2.87a2.42,2.42,0,0,1,.82.8l-5.32,3-5.3-3a2.3,2.3,0,0,1,.82-.79Zm0,8.24a2.34,2.34,0,0,1-1.17-2V4.9A2.49,2.49,0,0,1,1,4.29l5.24,3v6A2.35,2.35,0,0,1,5.39,13L2.05,11.12Zm10.15-.45A1.33,1.33,0,1,0,13.54,12,1.33,1.33,0,0,0,12.2,10.67Zm0,2a.67.67,0,0,1,0-1.34.67.67,0,0,1,0,1.34Zm3.09,0-.15-.09a2.74,2.74,0,0,0,0-1.14l.15-.09a1,1,0,0,0,.47-.61,1,1,0,0,0-.11-.76A1,1,0,0,0,15,9.51a1,1,0,0,0-.76.11l-.15.08a3.14,3.14,0,0,0-.93-.52V9a1,1,0,0,0-2,0v.18a3.14,3.14,0,0,0-.93.52l-.15-.08a1,1,0,0,0-.76-.11,1,1,0,0,0-.61.46,1,1,0,0,0-.1.76,1,1,0,0,0,.46.61l.15.09a2.74,2.74,0,0,0,0,1.14l-.15.09a1,1,0,0,0-.46.61,1,1,0,0,0,.1.76,1,1,0,0,0,.61.46,1,1,0,0,0,.76-.11l.15-.08a3.14,3.14,0,0,0,.93.52V15a1,1,0,0,0,2,0v-.18a3,3,0,0,0,.93-.52l.15.08a1,1,0,0,0,.76.11,1,1,0,0,0,.61-.46,1,1,0,0,0,.11-.76,1,1,0,0,0-.47-.61Zm-.85-1.3a2.71,2.71,0,0,1,.1.64,2.71,2.71,0,0,1-.1.64.31.31,0,0,0,.15.37l.37.22a.36.36,0,0,1,.15.21.37.37,0,0,1,0,.25.32.32,0,0,1-.21.15.32.32,0,0,1-.25,0l-.36-.21a.33.33,0,0,0-.41.05,2.37,2.37,0,0,1-1.06.6.33.33,0,0,0-.25.32V15a.34.34,0,0,1-.67,0v-.43a.33.33,0,0,0-.25-.32,2.46,2.46,0,0,1-1.07-.6.31.31,0,0,0-.24-.1.3.3,0,0,0-.17,0l-.36.21a.35.35,0,0,1-.25,0,.3.3,0,0,1-.2-.15.32.32,0,0,1,0-.25.34.34,0,0,1,.16-.21L9.82,13a.32.32,0,0,0,.15-.37,2.1,2.1,0,0,1,0-1.28A.34.34,0,0,0,9.82,11l-.37-.21a.34.34,0,0,1-.16-.21.32.32,0,0,1,0-.25.3.3,0,0,1,.2-.15.31.31,0,0,1,.25,0l.36.21a.33.33,0,0,0,.41-.05,2.37,2.37,0,0,1,1.07-.6.33.33,0,0,0,.25-.32V9a.33.33,0,0,1,.66,0v.43a.34.34,0,0,0,.25.32,2.35,2.35,0,0,1,1.07.6.33.33,0,0,0,.41.05l.36-.21a.35.35,0,0,1,.25,0,.32.32,0,0,1,.21.15.37.37,0,0,1,0,.25.36.36,0,0,1-.15.21l-.37.21a.35.35,0,0,0-.16.38Z" transform="translate(-0.21)"/></svg>