<svg id="Layer_1" data-name="Layer 1" xmlns="http://www.w3.org/2000/svg" viewBox="0 0 13.23 16"><defs><style>.cls-1{fill:#5e5e5e;}</style></defs><path class="cls-1" d="M11.47,2.77H9.87a.15.15,0,0,0-.15.11.15.15,0,0,0,0,.18l.64.63-1,1-.78-.78a.36.36,0,0,0-.26-.11.39.39,0,0,0-.27.11L7,5A.38.38,0,0,0,7,5.5a.39.39,0,0,0,.53,0l.78-.78.77.78a.39.39,0,0,0,.27.11.36.36,0,0,0,.26-.11l1.27-1.27.64.63a.17.17,0,0,0,.18,0,.15.15,0,0,0,.1-.15V3.13A.37.37,0,0,0,11.47,2.77ZM9.39,7.62A.38.38,0,0,0,9,8v2.08a.38.38,0,1,0,.75,0V8A.38.38,0,0,0,9.39,7.62Zm2.07.7a.37.37,0,0,0-.37.37v1.39a.38.38,0,1,0,.75,0V8.69A.37.37,0,0,0,11.46,8.32ZM7.31,9a.38.38,0,0,0-.38.38v.69a.38.38,0,1,0,.76,0V9.39A.38.38,0,0,0,7.31,9Zm3.46,6.23H4.54a2.4,2.4,0,0,1-2.4-2.39V4.54a.38.38,0,1,0-.75,0v8.31A3.15,3.15,0,0,0,4.54,16h6.23a.38.38,0,1,0,0-.76Zm.7-12.47H9.87a.15.15,0,0,0-.15.11.15.15,0,0,0,0,.18l.64.63-1,1-.78-.78a.36.36,0,0,0-.26-.11.39.39,0,0,0-.27.11L7,5A.38.38,0,0,0,7,5.5a.39.39,0,0,0,.53,0l.78-.78.77.78a.39.39,0,0,0,.27.11.36.36,0,0,0,.26-.11l1.27-1.27.64.63a.17.17,0,0,0,.18,0,.15.15,0,0,0,.1-.15V3.13A.37.37,0,0,0,11.47,2.77Zm0,5.55a.37.37,0,0,0-.37.37v1.39a.38.38,0,1,0,.75,0V8.69A.37.37,0,0,0,11.46,8.32Zm-2.07-.7A.38.38,0,0,0,9,8v2.08a.38.38,0,1,0,.75,0V8A.38.38,0,0,0,9.39,7.62ZM7.31,9a.38.38,0,0,0-.38.38v.69a.38.38,0,1,0,.76,0V9.39A.38.38,0,0,0,7.31,9Zm0,0a.38.38,0,0,0-.38.38v.69a.38.38,0,1,0,.76,0V9.39A.38.38,0,0,0,7.31,9ZM9.39,7.62A.38.38,0,0,0,9,8v2.08a.38.38,0,1,0,.75,0V8A.38.38,0,0,0,9.39,7.62Zm2.07.7a.37.37,0,0,0-.37.37v1.39a.38.38,0,1,0,.75,0V8.69A.37.37,0,0,0,11.46,8.32Zm0-5.55H9.87a.15.15,0,0,0-.15.11.15.15,0,0,0,0,.18l.64.63-1,1-.78-.78a.36.36,0,0,0-.26-.11.39.39,0,0,0-.27.11L7,5A.38.38,0,0,0,7,5.5a.39.39,0,0,0,.53,0l.78-.78.77.78a.39.39,0,0,0,.27.11.36.36,0,0,0,.26-.11l1.27-1.27.64.63a.17.17,0,0,0,.18,0,.15.15,0,0,0,.1-.15V3.13A.37.37,0,0,0,11.47,2.77Zm0,0H9.87a.15.15,0,0,0-.15.11.15.15,0,0,0,0,.18l.64.63-1,1-.78-.78a.36.36,0,0,0-.26-.11.39.39,0,0,0-.27.11L7,5A.38.38,0,0,0,7,5.5a.39.39,0,0,0,.53,0l.78-.78.77.78a.39.39,0,0,0,.27.11.36.36,0,0,0,.26-.11l1.27-1.27.64.63a.17.17,0,0,0,.18,0,.15.15,0,0,0,.1-.15V3.13A.37.37,0,0,0,11.47,2.77Zm0,5.55a.37.37,0,0,0-.37.37v1.39a.38.38,0,1,0,.75,0V8.69A.37.37,0,0,0,11.46,8.32Zm-2.07-.7A.38.38,0,0,0,9,8v2.08a.38.38,0,1,0,.75,0V8A.38.38,0,0,0,9.39,7.62ZM7.31,9a.38.38,0,0,0-.38.38v.69a.38.38,0,1,0,.76,0V9.39A.38.38,0,0,0,7.31,9Zm0,0a.38.38,0,0,0-.38.38v.69a.38.38,0,1,0,.76,0V9.39A.38.38,0,0,0,7.31,9ZM9.39,7.62A.38.38,0,0,0,9,8v2.08a.38.38,0,1,0,.75,0V8A.38.38,0,0,0,9.39,7.62Zm2.07.7a.37.37,0,0,0-.37.37v1.39a.38.38,0,1,0,.75,0V8.69A.37.37,0,0,0,11.46,8.32Zm0-5.55H9.87a.15.15,0,0,0-.15.11.15.15,0,0,0,0,.18l.64.63-1,1-.78-.78a.36.36,0,0,0-.26-.11.39.39,0,0,0-.27.11L7,5A.38.38,0,0,0,7,5.5a.39.39,0,0,0,.53,0l.78-.78.77.78a.39.39,0,0,0,.27.11.36.36,0,0,0,.26-.11l1.27-1.27.64.63a.17.17,0,0,0,.18,0,.15.15,0,0,0,.1-.15V3.13A.37.37,0,0,0,11.47,2.77Zm0,5.55a.37.37,0,0,0-.37.37v1.39a.38.38,0,1,0,.75,0V8.69A.37.37,0,0,0,11.46,8.32Zm0-5.55H9.87a.15.15,0,0,0-.15.11.15.15,0,0,0,0,.18l.64.63-1,1-.78-.78a.36.36,0,0,0-.26-.11.39.39,0,0,0-.27.11L7,5A.38.38,0,0,0,7,5.5a.39.39,0,0,0,.53,0l.78-.78.77.78a.39.39,0,0,0,.27.11.36.36,0,0,0,.26-.11l1.27-1.27.64.63a.17.17,0,0,0,.18,0,.15.15,0,0,0,.1-.15V3.13A.37.37,0,0,0,11.47,2.77ZM9.39,7.62A.38.38,0,0,0,9,8v2.08a.38.38,0,1,0,.75,0V8A.38.38,0,0,0,9.39,7.62ZM7.31,9a.38.38,0,0,0-.38.38v.69a.38.38,0,1,0,.76,0V9.39A.38.38,0,0,0,7.31,9Zm4.15-9H7.31A3.15,3.15,0,0,0,4.16,3.15v6.93a3.15,3.15,0,0,0,3.15,3.15h4.15a3.15,3.15,0,0,0,3.15-3.15V3.15A3.15,3.15,0,0,0,11.46,0Zm2.4,10.08a2.4,2.4,0,0,1-2.4,2.39H7.31a2.4,2.4,0,0,1-2.4-2.39V3.15A2.4,2.4,0,0,1,7.31.76h4.15a2.4,2.4,0,0,1,2.4,2.39Zm-2.4-1.76a.37.37,0,0,0-.37.37v1.39a.38.38,0,1,0,.75,0V8.69A.37.37,0,0,0,11.46,8.32Zm0-5.55H9.87a.15.15,0,0,0-.15.11.15.15,0,0,0,0,.18l.64.63-1,1-.78-.78a.36.36,0,0,0-.26-.11.39.39,0,0,0-.27.11L7,5A.38.38,0,0,0,7,5.5a.39.39,0,0,0,.53,0l.78-.78.77.78a.39.39,0,0,0,.27.11.36.36,0,0,0,.26-.11l1.27-1.27.64.63a.17.17,0,0,0,.18,0,.15.15,0,0,0,.1-.15V3.13A.37.37,0,0,0,11.47,2.77ZM9.39,7.62A.38.38,0,0,0,9,8v2.08a.38.38,0,1,0,.75,0V8A.38.38,0,0,0,9.39,7.62ZM7.31,9a.38.38,0,0,0-.38.38v.69a.38.38,0,1,0,.76,0V9.39A.38.38,0,0,0,7.31,9Zm0,0a.38.38,0,0,0-.38.38v.69a.38.38,0,1,0,.76,0V9.39A.38.38,0,0,0,7.31,9ZM9.39,7.62A.38.38,0,0,0,9,8v2.08a.38.38,0,1,0,.75,0V8A.38.38,0,0,0,9.39,7.62Zm2.07.7a.37.37,0,0,0-.37.37v1.39a.38.38,0,1,0,.75,0V8.69A.37.37,0,0,0,11.46,8.32Zm0-5.55H9.87a.15.15,0,0,0-.15.11.15.15,0,0,0,0,.18l.64.63-1,1-.78-.78a.36.36,0,0,0-.26-.11.39.39,0,0,0-.27.11L7,5A.38.38,0,0,0,7,5.5a.39.39,0,0,0,.53,0l.78-.78.77.78a.39.39,0,0,0,.27.11.36.36,0,0,0,.26-.11l1.27-1.27.64.63a.17.17,0,0,0,.18,0,.15.15,0,0,0,.1-.15V3.13A.37.37,0,0,0,11.47,2.77Zm0,0H9.87a.15.15,0,0,0-.15.11.15.15,0,0,0,0,.18l.64.63-1,1-.78-.78a.36.36,0,0,0-.26-.11.39.39,0,0,0-.27.11L7,5A.38.38,0,0,0,7,5.5a.39.39,0,0,0,.53,0l.78-.78.77.78a.39.39,0,0,0,.27.11.36.36,0,0,0,.26-.11l1.27-1.27.64.63a.17.17,0,0,0,.18,0,.15.15,0,0,0,.1-.15V3.13A.37.37,0,0,0,11.47,2.77Zm0,5.55a.37.37,0,0,0-.37.37v1.39a.38.38,0,1,0,.75,0V8.69A.37.37,0,0,0,11.46,8.32Zm-2.07-.7A.38.38,0,0,0,9,8v2.08a.38.38,0,1,0,.75,0V8A.38.38,0,0,0,9.39,7.62ZM7.31,9a.38.38,0,0,0-.38.38v.69a.38.38,0,1,0,.76,0V9.39A.38.38,0,0,0,7.31,9Zm0,0a.38.38,0,0,0-.38.38v.69a.38.38,0,1,0,.76,0V9.39A.38.38,0,0,0,7.31,9ZM9.39,7.62A.38.38,0,0,0,9,8v2.08a.38.38,0,1,0,.75,0V8A.38.38,0,0,0,9.39,7.62Zm2.07.7a.37.37,0,0,0-.37.37v1.39a.38.38,0,1,0,.75,0V8.69A.37.37,0,0,0,11.46,8.32Zm0-5.55H9.87a.15.15,0,0,0-.15.11.15.15,0,0,0,0,.18l.64.63-1,1-.78-.78a.36.36,0,0,0-.26-.11.39.39,0,0,0-.27.11L7,5A.38.38,0,0,0,7,5.5a.39.39,0,0,0,.53,0l.78-.78.77.78a.39.39,0,0,0,.27.11.36.36,0,0,0,.26-.11l1.27-1.27.64.63a.17.17,0,0,0,.18,0,.15.15,0,0,0,.1-.15V3.13A.37.37,0,0,0,11.47,2.77Zm0,0H9.87a.15.15,0,0,0-.15.11.15.15,0,0,0,0,.18l.64.63-1,1-.78-.78a.36.36,0,0,0-.26-.11.39.39,0,0,0-.27.11L7,5A.38.38,0,0,0,7,5.5a.39.39,0,0,0,.53,0l.78-.78.77.78a.39.39,0,0,0,.27.11.36.36,0,0,0,.26-.11l1.27-1.27.64.63a.17.17,0,0,0,.18,0,.15.15,0,0,0,.1-.15V3.13A.37.37,0,0,0,11.47,2.77Zm0,5.55a.37.37,0,0,0-.37.37v1.39a.38.38,0,1,0,.75,0V8.69A.37.37,0,0,0,11.46,8.32Zm-2.07-.7A.38.38,0,0,0,9,8v2.08a.38.38,0,1,0,.75,0V8A.38.38,0,0,0,9.39,7.62ZM7.31,9a.38.38,0,0,0-.38.38v.69a.38.38,0,1,0,.76,0V9.39A.38.38,0,0,0,7.31,9Z" transform="translate(-1.39)"/></svg>