<svg id="Layer_1" data-name="Layer 1" xmlns="http://www.w3.org/2000/svg" viewBox="0 0 16 16"><defs><style>.cls-1{fill:#5e5e5e;}</style></defs><path class="cls-1" d="M16,8v4.8a3.12,3.12,0,0,1-2,3,2.75,2.75,0,0,1-1,.2H3.06a3.13,3.13,0,0,1-3-2.37,4.48,4.48,0,0,1-.1-.82V3.18A3.14,3.14,0,0,1,2.64,0a2.18,2.18,0,0,1,.44,0h9.84A3.14,3.14,0,0,1,16,2.74a3.4,3.4,0,0,1,0,.45ZM.75,8v4.85a2.39,2.39,0,0,0,2.4,2.4h9.7a2.39,2.39,0,0,0,2.4-2.4V3.15a2.39,2.39,0,0,0-2.4-2.4H3.15A2.42,2.42,0,0,0,2.68.8,2.38,2.38,0,0,0,.75,3.2Z" transform="translate(0)"/><path class="cls-1" d="M4.29,13H3.6s-.07-.06-.07-.09a4.63,4.63,0,0,1,.54-2.42,4.45,4.45,0,0,1,2.19-2l.08-.05A2.93,2.93,0,0,1,5,5.65a2.83,2.83,0,0,1,1.1-2A2.94,2.94,0,1,1,9.54,8.41l.13.06a4.44,4.44,0,0,1,2.69,3.15,4.92,4.92,0,0,1,.11,1.27.13.13,0,0,1-.07.1h-.68a3.79,3.79,0,0,0-1.36-3.25A3.61,3.61,0,0,0,7.89,8.9a3.62,3.62,0,0,0-2.68,1.26A3.77,3.77,0,0,0,4.29,13ZM7.91,3.77a2.19,2.19,0,1,0,0,4.37,2.19,2.19,0,1,0,0-4.37Z" transform="translate(0)"/></svg>